<svg viewBox="0 0 330.0000305175781 200.00001525878906" xmlns="http://www.w3.org/2000/svg"><g><g><g><g><g><line x1="70" y1="178" x2="65" y2="178" style="visibility: inherit;" fill="rgb(0, 0, 0)" stroke="rgb(204, 204, 204)" stroke-width="1px"></line><line x1="70" y1="163.16666666666674" x2="65" y2="163.16666666666674" style="visibility: inherit;" fill="rgb(0, 0, 0)" stroke="rgb(204, 204, 204)" stroke-width="1px"></line><line x1="70" y1="148.3333333333334" x2="65" y2="148.3333333333334" style="visibility: inherit;" fill="rgb(0, 0, 0)" stroke="rgb(204, 204, 204)" stroke-width="1px"></line><line x1="70" y1="133.50000000000006" x2="65" y2="133.50000000000006" style="visibility: inherit;" fill="rgb(0, 0, 0)" stroke="rgb(204, 204, 204)" stroke-width="1px"></line><line x1="70" y1="118.66666666666669" x2="65" y2="118.66666666666669" style="visibility: inherit;" fill="rgb(0, 0, 0)" stroke="rgb(204, 204, 204)" stroke-width="1px"></line><line x1="70" y1="103.83333333333334" x2="65" y2="103.83333333333334" style="visibility: inherit;" fill="rgb(0, 0, 0)" stroke="rgb(204, 204, 204)" stroke-width="1px"></line><line x1="70" y1="89" x2="65" y2="89" style="visibility: inherit;" fill="rgb(0, 0, 0)" stroke="rgb(204, 204, 204)" stroke-width="1px"></line><line x1="70" y1="74.16666666666674" x2="65" y2="74.16666666666674" style="visibility: inherit;" fill="rgb(0, 0, 0)" stroke="rgb(204, 204, 204)" stroke-width="1px"></line><line x1="70" y1="59.333333333333385" x2="65" y2="59.333333333333385" style="visibility: inherit;" fill="rgb(0, 0, 0)" stroke="rgb(204, 204, 204)" stroke-width="1px"></line><line x1="70" y1="44.50000000000003" x2="65" y2="44.50000000000003" style="visibility: inherit;" fill="rgb(0, 0, 0)" stroke="rgb(204, 204, 204)" stroke-width="1px"></line><line x1="70" y1="29.666666666666686" x2="65" y2="29.666666666666686" style="visibility: inherit;" fill="rgb(0, 0, 0)" stroke="rgb(204, 204, 204)" stroke-width="1px"></line><line x1="70" y1="14.833333333333343" x2="65" y2="14.833333333333343" style="visibility: inherit;" fill="rgb(0, 0, 0)" stroke="rgb(204, 204, 204)" stroke-width="1px"></line><line x1="70" y1="0" x2="65" y2="0" style="visibility: inherit;" fill="rgb(0, 0, 0)" stroke="rgb(204, 204, 204)" stroke-width="1px"></line></g><g transform="translate(60, 0)"><text x="0" y="178" dx="0em" dy="0.3em" style="text-anchor: end; visibility: hidden; font-family: &quot;Helvetica Neue&quot;, sans-serif; font-size: 12px; font-weight: 200;" fill="rgb(50, 49, 63)" stroke="none" stroke-width="1px">0.400</text><text x="0" y="163.16666666666674" dx="0em" dy="0.3em" style="text-anchor: end; visibility: inherit; font-family: &quot;Helvetica Neue&quot;, sans-serif; font-size: 12px; font-weight: 200;" fill="rgb(50, 49, 63)" stroke="none" stroke-width="1px">0.410</text><text x="0" y="148.3333333333334" dx="0em" dy="0.3em" style="text-anchor: end; visibility: hidden; font-family: &quot;Helvetica Neue&quot;, sans-serif; font-size: 12px; font-weight: 200;" fill="rgb(50, 49, 63)" stroke="none" stroke-width="1px">0.420</text><text x="0" y="133.50000000000006" dx="0em" dy="0.3em" style="text-anchor: end; visibility: inherit; font-family: &quot;Helvetica Neue&quot;, sans-serif; font-size: 12px; font-weight: 200;" fill="rgb(50, 49, 63)" stroke="none" stroke-width="1px">0.430</text><text x="0" y="118.66666666666669" dx="0em" dy="0.3em" style="text-anchor: end; visibility: hidden; font-family: &quot;Helvetica Neue&quot;, sans-serif; font-size: 12px; font-weight: 200;" fill="rgb(50, 49, 63)" stroke="none" stroke-width="1px">0.440</text><text x="0" y="103.83333333333334" dx="0em" dy="0.3em" style="text-anchor: end; visibility: inherit; font-family: &quot;Helvetica Neue&quot;, sans-serif; font-size: 12px; font-weight: 200;" fill="rgb(50, 49, 63)" stroke="none" stroke-width="1px">0.450</text><text x="0" y="89" dx="0em" dy="0.3em" style="text-anchor: end; visibility: hidden; font-family: &quot;Helvetica Neue&quot;, sans-serif; font-size: 12px; font-weight: 200;" fill="rgb(50, 49, 63)" stroke="none" stroke-width="1px">0.460</text><text x="0" y="74.16666666666674" dx="0em" dy="0.3em" style="text-anchor: end; visibility: inherit; font-family: &quot;Helvetica Neue&quot;, sans-serif; font-size: 12px; font-weight: 200;" fill="rgb(50, 49, 63)" stroke="none" stroke-width="1px">0.470</text><text x="0" y="59.333333333333385" dx="0em" dy="0.3em" style="text-anchor: end; visibility: hidden; font-family: &quot;Helvetica Neue&quot;, sans-serif; font-size: 12px; font-weight: 200;" fill="rgb(50, 49, 63)" stroke="none" stroke-width="1px">0.480</text><text x="0" y="44.50000000000003" dx="0em" dy="0.3em" style="text-anchor: end; visibility: inherit; font-family: &quot;Helvetica Neue&quot;, sans-serif; font-size: 12px; font-weight: 200;" fill="rgb(50, 49, 63)" stroke="none" stroke-width="1px">0.490</text><text x="0" y="29.666666666666686" dx="0em" dy="0.3em" style="text-anchor: end; visibility: hidden; font-family: &quot;Helvetica Neue&quot;, sans-serif; font-size: 12px; font-weight: 200;" fill="rgb(50, 49, 63)" stroke="none" stroke-width="1px">0.500</text><text x="0" y="14.833333333333343" dx="0em" dy="0.3em" style="text-anchor: end; visibility: inherit; font-family: &quot;Helvetica Neue&quot;, sans-serif; font-size: 12px; font-weight: 200;" fill="rgb(50, 49, 63)" stroke="none" stroke-width="1px">0.510</text><text x="0" y="0" dx="0em" dy="0.3em" style="text-anchor: end; visibility: hidden; font-family: &quot;Helvetica Neue&quot;, sans-serif; font-size: 12px; font-weight: 200;" fill="rgb(50, 49, 63)" stroke="none" stroke-width="1px">0.520</text></g><line x1="70" y1="0" x2="70" y2="178" fill="rgb(0, 0, 0)" stroke="rgb(204, 204, 204)" stroke-width="1px"></line></g></g><g transform="translate(70, 0)" clip-path="url(#clip_0)"><clipPath id="clip_0"><rect width="260" height="177"></rect></clipPath><g><g><g><line x1="0" y1="0" x2="0" y2="178" fill="rgb(0, 0, 0)" stroke="rgb(60, 60, 60)" stroke-width="1px" opacity="0.25"></line><line x1="26" y1="0" x2="26" y2="178" fill="rgb(0, 0, 0)" stroke="rgb(60, 60, 60)" stroke-width="1px" opacity="0.25"></line><line x1="52" y1="0" x2="52" y2="178" fill="rgb(0, 0, 0)" stroke="rgb(60, 60, 60)" stroke-width="1px" opacity="0.25"></line><line x1="78" y1="0" x2="78" y2="178" fill="rgb(0, 0, 0)" stroke="rgb(60, 60, 60)" stroke-width="1px" opacity="0.25"></line><line x1="104" y1="0" x2="104" y2="178" fill="rgb(0, 0, 0)" stroke="rgb(60, 60, 60)" stroke-width="1px" opacity="0.25"></line><line x1="130" y1="0" x2="130" y2="178" fill="rgb(0, 0, 0)" stroke="rgb(60, 60, 60)" stroke-width="1px" opacity="0.25"></line><line x1="156" y1="0" x2="156" y2="178" fill="rgb(0, 0, 0)" stroke="rgb(60, 60, 60)" stroke-width="1px" opacity="0.25"></line><line x1="182" y1="0" x2="182" y2="178" fill="rgb(0, 0, 0)" stroke="rgb(60, 60, 60)" stroke-width="1px" opacity="0.25"></line><line x1="208" y1="0" x2="208" y2="178" fill="rgb(0, 0, 0)" stroke="rgb(60, 60, 60)" stroke-width="1px" opacity="0.25"></line><line x1="234" y1="0" x2="234" y2="178" fill="rgb(0, 0, 0)" stroke="rgb(60, 60, 60)" stroke-width="1px" opacity="0.25"></line><line x1="260" y1="0" x2="260" y2="178" fill="rgb(0, 0, 0)" stroke="rgb(60, 60, 60)" stroke-width="1px" opacity="0.25"></line></g><g><line x1="0" y1="178" x2="260" y2="178" fill="rgb(0, 0, 0)" stroke="rgb(60, 60, 60)" stroke-width="1px" opacity="0.25"></line><line x1="0" y1="163.16666666666674" x2="260" y2="163.16666666666674" fill="rgb(0, 0, 0)" stroke="rgb(60, 60, 60)" stroke-width="1px" opacity="0.25"></line><line x1="0" y1="148.3333333333334" x2="260" y2="148.3333333333334" fill="rgb(0, 0, 0)" stroke="rgb(60, 60, 60)" stroke-width="1px" opacity="0.25"></line><line x1="0" y1="133.50000000000006" x2="260" y2="133.50000000000006" fill="rgb(0, 0, 0)" stroke="rgb(60, 60, 60)" stroke-width="1px" opacity="0.25"></line><line x1="0" y1="118.66666666666669" x2="260" y2="118.66666666666669" fill="rgb(0, 0, 0)" stroke="rgb(60, 60, 60)" stroke-width="1px" opacity="0.25"></line><line x1="0" y1="103.83333333333334" x2="260" y2="103.83333333333334" fill="rgb(0, 0, 0)" stroke="rgb(60, 60, 60)" stroke-width="1px" opacity="0.25"></line><line x1="0" y1="89" x2="260" y2="89" fill="rgb(0, 0, 0)" stroke="rgb(60, 60, 60)" stroke-width="1px" opacity="0.25"></line><line x1="0" y1="74.16666666666674" x2="260" y2="74.16666666666674" fill="rgb(0, 0, 0)" stroke="rgb(60, 60, 60)" stroke-width="1px" opacity="0.25"></line><line x1="0" y1="59.333333333333385" x2="260" y2="59.333333333333385" fill="rgb(0, 0, 0)" stroke="rgb(60, 60, 60)" stroke-width="1px" opacity="0.25"></line><line x1="0" y1="44.50000000000003" x2="260" y2="44.50000000000003" fill="rgb(0, 0, 0)" stroke="rgb(60, 60, 60)" stroke-width="1px" opacity="0.25"></line><line x1="0" y1="29.666666666666686" x2="260" y2="29.666666666666686" fill="rgb(0, 0, 0)" stroke="rgb(60, 60, 60)" stroke-width="1px" opacity="0.25"></line><line x1="0" y1="14.833333333333343" x2="260" y2="14.833333333333343" fill="rgb(0, 0, 0)" stroke="rgb(60, 60, 60)" stroke-width="1px" opacity="0.25"></line><line x1="0" y1="0" x2="260" y2="0" fill="rgb(0, 0, 0)" stroke="rgb(60, 60, 60)" stroke-width="1px" opacity="0.25"></line></g></g></g><g><g><line x1="0" y1="771.3333333333334" x2="260" y2="771.3333333333334" fill="rgb(0, 0, 0)" stroke="rgb(153, 153, 153)" stroke-width="1.5px"></line></g></g><g><g><line x1="26" y1="0" x2="26" y2="178" fill="rgb(0, 0, 0)" stroke="rgb(153, 153, 153)" stroke-width="1.5px"></line></g></g><g><g><g><g><g><path stroke="rgb(51, 187, 238)" stroke-width="2px" d="M26,152.51641917228702L27.3,172.32547648747757L28.6,160.80022810105564L29.900000000000002,152.84522740082718L31.2,155.19459525666915L32.5,152.99655505637628L33.800000000000004,150.41154638883236L35.1,145.62002612331963L36.400000000000006,141.16299130401694L37.699999999999996,132.78553844603195L39,126.97674616918997L40.3,120.55364914375247L41.6,115.26023643818061L42.9,109.55328117398014L44.2,102.17356837802521L45.5,94.67720021684521L46.8,88.20318824916714L48.1,83.2857345980697L49.4,78.69604725279615L50.7,74.46390829859293L52,71.73572699360147L53.3,68.23387177293597L54.6,65.98342109785213L55.9,64.0017271380515L57.2,61.16279133929942L58.5,58.41224539438366L59.800000000000004,57.24927453475415L61.099999999999994,54.28672509423056L62.4,50.53248093698028L63.699999999999996,44.18058683026749L65,40.544439399023815L66.3,37.602659843950306L67.60000000000001,36.27032359193723L68.9,36.659129382887926L70.2,34.96229183243557L71.5,33.407678172250314L72.80000000000001,34.02365026373974L74.1,32.8839610544203L75.39999999999999,32.23528307893545L76.7,32.755904839448675L78,34.62722108872569L79.3,34.423860538574644L80.6,33.51070202278902L81.9,31.985023710192053L83.2,31.014499711727012L84.5,30.408313652478654L85.8,30.221040110145793L87.10000000000001,36.96240646478057L88.4,36.62171936930673L89.69999999999999,34.762523624691994L91,34.191527589195374L92.3,32.425789998387245L93.6,31.53587159697946L94.89999999999999,30.72248066972452L96.2,30.270412748122567L97.5,30.007306042351814L98.8,30.091217730266948L100.10000000000001,32.14846406012197L101.4,31.430799676752542L102.7,30.709585686788813L104,30.275159752527372L105.30000000000001,34.27506506214121L106.6,32.806349307912L107.89999999999999,32.152537205189844L109.2,34.15516099435314L110.5,33.118829010539486L111.8,31.65761383291877L113.1,30.78374932557429L114.4,32.780083431900096L115.7,31.54357576415964L117,30.770779466903377L118.3,30.309082152213392L119.60000000000001,30.036661268333063L120.9,29.87625016434572L122.19999999999999,32.54234361050675L123.5,31.878877874601756L124.8,30.94858418885201L126.1,30.424959995249935L127.39999999999999,30.10466726098457L128.7,29.921545168602478L130,29.811601182328133L131.3,29.747685985072394L132.6,29.71089294531174L133.9,29.689276871948778L135.20000000000002,29.676236497085853L136.5,29.669013484351865L137.8,33.524691770891195L139.1,38.94366027737857L140.4,36.39935593103485L141.70000000000002,34.044745001962525L143,32.90047273264574L144.3,33.912280741689045L145.60000000000002,33.2212953945145L146.89999999999998,31.714283965834653L148.2,30.874795831923905L149.5,30.371739529183685L150.79999999999998,30.072699615922232L152.1,29.899889001985315L153.4,29.799491617921916L154.7,29.74013732304803L156,29.7040296302078L157.29999999999998,29.67928822274041L158.6,30.421758537103926L159.9,37.41322129842254L161.2,35.43043157583449L162.5,33.03750228758244L163.8,31.705595277998384L165.1,30.85426939125074L166.4,30.332439847361286L167.70000000000002,30.05297463788861L169,29.890918614393087L170.3,29.792235017970512L171.6,30.461959267351205L172.9,32.89187702220269L174.20000000000002,32.0524898251787L175.5,31.38725520854564L176.8,30.68444923769664L178.10000000000002,30.2497158142601L179.39999999999998,29.991139147242365L180.7,29.852720991905812L182,29.771792024057874L183.29999999999998,29.725144376167776L184.6,29.69750944165932L185.9,29.680115076235182L187.2,29.671269900996265L188.5,30.012349427182755L189.79999999999998,35.644033428295074L191.1,33.92347367381862L192.4,33.215633255893806L193.7,31.727366969578355L195,30.88558096424316L196.3,30.368980233285356L197.6,30.06372339591198L198.9,29.893725230682747L200.20000000000002,29.795192142956722L201.5,29.738017388562298L202.8,29.703747901348237L204.1,29.87230280619542L205.4,33.74687328884016L206.70000000000002,32.14539941320231L208,31.10563251278444L209.3,30.500480681071565L210.60000000000002,30.149555287406827L211.89999999999998,29.940485398955758L213.2,29.822434839201605L214.5,29.75376179412561L215.79999999999998,29.742229556613466L217.1,31.72963712348937L218.4,31.160742158101357L219.7,33.697054247701004L221,32.21085316775864L222.29999999999998,31.15689364376837L223.6,30.540361638684118L224.9,30.176949673385906L226.2,29.961660997167115L227.5,29.836554815031008L228.8,29.76085452814317L230.1,30.80148880032351L231.4,30.54359048414821L232.70000000000002,30.185571045529457L234,29.9803257291625" style="fill: none;" fill="none"></path></g><g><path style="fill: none;" fill="none" stroke="none" stroke-width="1px"></path></g><g><path style="fill: none;" fill="none" stroke="none" stroke-width="1px"></path></g><g><path style="fill: none;" fill="none" stroke="none" stroke-width="1px"></path></g></g></g></g><g opacity="0.2"><g><g><g><path stroke="rgb(51, 187, 238)" stroke-width="2px" d="M26,152.51641917228702L27.3,184.21091087659204L28.6,149.73598965009057L29.900000000000002,143.49014657735827L31.2,158.26192992925647L32.5,149.95587416489923L33.800000000000004,146.7149426341057L35.1,138.6339435776075L36.400000000000006,134.5897306799889L37.699999999999996,120.3459972937902L39,118.31624307235084L40.3,110.95395781596504L41.6,107.33740129073463L42.9,101.00402879714969L44.2,91.11267375946048L45.5,83.43793499469759L46.8,78.49490988254549L48.1,75.9108026623726L49.4,71.81221542755766L50.7,68.1160867015521L52,67.64360465606056L53.3,62.98120417197548L54.6,62.60778951644899L55.9,61.02920967340471L57.2,56.904407819112166L58.5,54.28643820683165L59.800000000000004,55.504821221033765L61.099999999999994,49.84290548165643L62.4,44.90111815929416L63.699999999999996,34.65274918079379L65,35.09021945794427L66.3,33.18999109665555L67.60000000000001,34.27181937297189L68.9,37.24233804146451L70.2,32.417035579681425L71.5,31.075757722059905L72.80000000000001,34.94760839144391L74.1,31.174427251021086L75.39999999999999,31.262266119321225L76.7,33.53683747847879L78,37.434195458889036L79.3,34.11881971359256L80.6,32.140964249769866L81.9,29.696506241957366L83.2,29.558713714281737L84.5,29.499034563700377L85.8,29.94012979666394L87.10000000000001,47.07445599635446L88.4,36.1106887261073L89.69999999999999,31.973730007807433L91,33.335033535957365L92.3,29.77718361218774L93.6,30.200993994871794L94.89999999999999,29.502394278844235L96.2,29.59231086572015L97.5,29.612645983696012L98.8,30.217085262139676L100.10000000000001,35.234333554903685L101.4,30.354303101698576L102.7,29.62776470184329L104,29.623520851135282L105.30000000000001,40.274923026561765L106.6,30.603275676568387L107.89999999999999,31.17181905110681L109.2,37.15909667809808L110.5,31.564331034819304L111.8,29.465791066487668L113.1,29.47295256455743L114.4,35.77458459138873L115.7,29.6888142625491L117,29.61158502101901L118.3,29.616536180178343L119.60000000000001,29.62802994251254L120.9,29.63563350836438L122.19999999999999,36.54148377974832L123.5,30.883679270744352L124.8,29.553143660227477L126.1,29.639523704846738L127.39999999999999,29.624228159586607L128.7,29.646862030029325L130,29.6466852029165L131.3,29.65181318918866L132.6,29.655703385671018L133.9,29.656852761904418L135.20000000000002,29.656675934791593L136.5,29.65817896525067L137.8,39.30820920070016L139.1,47.0721130371094L140.4,32.582899411519406L141.70000000000002,30.51282860835397L143,31.18406432867053L144.3,35.42999275525415L145.60000000000002,32.18481737375262L146.89999999999998,29.45376682281497L148.2,29.615563631057768L149.5,29.61715507507327L150.79999999999998,29.62413974603021L152.1,29.640673081080138L153.4,29.648895541826903L154.7,29.651105880737333L156,29.649868090947507L157.29999999999998,29.642176111539243L158.6,31.535464008649228L159.9,47.90041544040048L161.2,32.4562469919523L162.5,29.448108355204283L163.8,29.707734763622312L165.1,29.57728056112927L166.4,29.54969553152722L167.70000000000002,29.633776823679625L169,29.6478345791499L170.3,29.64420962333682L171.6,31.4665456414223L172.9,36.53675365448001L174.20000000000002,30.79340902964276L175.5,30.389403283596067L176.8,29.63024028142297L178.10000000000002,29.59761567910516L179.39999999999998,29.60327414671582L180.7,29.645093758900998L182,29.650398572286008L183.29999999999998,29.655172904332517L184.6,29.656057039896666L185.9,29.65402352809909L187.2,29.658002138137846L188.5,30.52396871646249L189.79999999999998,44.09155942996347L191.1,31.342634042104123L192.4,32.15387262900674L193.7,29.494967540105222L195,29.622901956240355L196.3,29.594079136848478L197.6,29.605838139851926L198.9,29.638727982838986L200.20000000000002,29.647392511367826L201.5,29.65225525697076L202.8,29.65234367052716L204.1,30.125135163466155L205.4,39.55872901280725L206.70000000000002,29.74318859974545L208,29.545982162157713L209.3,29.592752933502226L210.60000000000002,29.623167196909606L211.89999999999998,29.626880566279112L213.2,29.64535899957025L214.5,29.650752226511656L215.79999999999998,29.724931200345395L217.1,34.71074847380322L218.4,30.307399710019467L219.7,37.50152238210046L221,29.981551547845243L222.29999999999998,29.57595435778302L223.6,29.615563631057768L224.9,29.631831725438474L226.2,29.638727982838986L227.5,29.648895541826903L228.8,29.6473040978114L230.1,32.36244020859402L231.4,30.15674300988519L232.70000000000002,29.648541887601255L234,29.672457754611997" style="fill: none;" fill="none"></path></g><g><path style="fill: none;" fill="none" stroke="none" stroke-width="1px"></path></g><g><path style="fill: none;" fill="none" stroke="none" stroke-width="1px"></path></g><g><path style="fill: none;" fill="none" stroke="none" stroke-width="1px"></path></g></g></g></g></g></g><g transform="translate(70, 178)" clip-path="url(#clip_1)"><clipPath id="clip_1"><rect width="260" height="21"></rect></clipPath><g><g><line x1="0" y1="0" x2="0" y2="5" style="visibility: inherit;" fill="rgb(0, 0, 0)" stroke="rgb(204, 204, 204)" stroke-width="1px"></line><line x1="26" y1="0" x2="26" y2="5" style="visibility: inherit;" fill="rgb(0, 0, 0)" stroke="rgb(204, 204, 204)" stroke-width="1px"></line><line x1="52" y1="0" x2="52" y2="5" style="visibility: inherit;" fill="rgb(0, 0, 0)" stroke="rgb(204, 204, 204)" stroke-width="1px"></line><line x1="78" y1="0" x2="78" y2="5" style="visibility: inherit;" fill="rgb(0, 0, 0)" stroke="rgb(204, 204, 204)" stroke-width="1px"></line><line x1="104" y1="0" x2="104" y2="5" style="visibility: inherit;" fill="rgb(0, 0, 0)" stroke="rgb(204, 204, 204)" stroke-width="1px"></line><line x1="130" y1="0" x2="130" y2="5" style="visibility: inherit;" fill="rgb(0, 0, 0)" stroke="rgb(204, 204, 204)" stroke-width="1px"></line><line x1="156" y1="0" x2="156" y2="5" style="visibility: inherit;" fill="rgb(0, 0, 0)" stroke="rgb(204, 204, 204)" stroke-width="1px"></line><line x1="182" y1="0" x2="182" y2="5" style="visibility: inherit;" fill="rgb(0, 0, 0)" stroke="rgb(204, 204, 204)" stroke-width="1px"></line><line x1="208" y1="0" x2="208" y2="5" style="visibility: inherit;" fill="rgb(0, 0, 0)" stroke="rgb(204, 204, 204)" stroke-width="1px"></line><line x1="234" y1="0" x2="234" y2="5" style="visibility: inherit;" fill="rgb(0, 0, 0)" stroke="rgb(204, 204, 204)" stroke-width="1px"></line><line x1="260" y1="0" x2="260" y2="5" style="visibility: inherit;" fill="rgb(0, 0, 0)" stroke="rgb(204, 204, 204)" stroke-width="1px"></line></g><g transform="translate(0, 8)"><text x="0" y="0" dx="0em" dy="0.95em" style="text-anchor: middle; visibility: hidden; font-family: &quot;Helvetica Neue&quot;, sans-serif; font-size: 12px; font-weight: 200;" fill="rgb(50, 49, 63)" stroke="none" stroke-width="1px">-20.00</text><text x="26" y="0" dx="0em" dy="0.95em" style="text-anchor: middle; visibility: inherit; font-family: &quot;Helvetica Neue&quot;, sans-serif; font-size: 12px; font-weight: 200;" fill="rgb(50, 49, 63)" stroke="none" stroke-width="1px">0.000</text><text x="52" y="0" dx="0em" dy="0.95em" style="text-anchor: middle; visibility: hidden; font-family: &quot;Helvetica Neue&quot;, sans-serif; font-size: 12px; font-weight: 200;" fill="rgb(50, 49, 63)" stroke="none" stroke-width="1px">20.00</text><text x="78" y="0" dx="0em" dy="0.95em" style="text-anchor: middle; visibility: inherit; font-family: &quot;Helvetica Neue&quot;, sans-serif; font-size: 12px; font-weight: 200;" fill="rgb(50, 49, 63)" stroke="none" stroke-width="1px">40.00</text><text x="104" y="0" dx="0em" dy="0.95em" style="text-anchor: middle; visibility: hidden; font-family: &quot;Helvetica Neue&quot;, sans-serif; font-size: 12px; font-weight: 200;" fill="rgb(50, 49, 63)" stroke="none" stroke-width="1px">60.00</text><text x="130" y="0" dx="0em" dy="0.95em" style="text-anchor: middle; visibility: inherit; font-family: &quot;Helvetica Neue&quot;, sans-serif; font-size: 12px; font-weight: 200;" fill="rgb(50, 49, 63)" stroke="none" stroke-width="1px">80.00</text><text x="156" y="0" dx="0em" dy="0.95em" style="text-anchor: middle; visibility: hidden; font-family: &quot;Helvetica Neue&quot;, sans-serif; font-size: 12px; font-weight: 200;" fill="rgb(50, 49, 63)" stroke="none" stroke-width="1px">100.0</text><text x="182" y="0" dx="0em" dy="0.95em" style="text-anchor: middle; visibility: inherit; font-family: &quot;Helvetica Neue&quot;, sans-serif; font-size: 12px; font-weight: 200;" fill="rgb(50, 49, 63)" stroke="none" stroke-width="1px">120.0</text><text x="208" y="0" dx="0em" dy="0.95em" style="text-anchor: middle; visibility: hidden; font-family: &quot;Helvetica Neue&quot;, sans-serif; font-size: 12px; font-weight: 200;" fill="rgb(50, 49, 63)" stroke="none" stroke-width="1px">140.0</text><text x="234" y="0" dx="0em" dy="0.95em" style="text-anchor: middle; visibility: inherit; font-family: &quot;Helvetica Neue&quot;, sans-serif; font-size: 12px; font-weight: 200;" fill="rgb(50, 49, 63)" stroke="none" stroke-width="1px">160.0</text><text x="260" y="0" dx="0em" dy="0.95em" style="text-anchor: middle; visibility: hidden; font-family: &quot;Helvetica Neue&quot;, sans-serif; font-size: 12px; font-weight: 200;" fill="rgb(50, 49, 63)" stroke="none" stroke-width="1px">180.0</text></g><line x1="0" y1="0" x2="260" y2="0" fill="rgb(0, 0, 0)" stroke="rgb(204, 204, 204)" stroke-width="1px"></line></g></g></g></g></svg>