<svg viewBox="0 0 1637.46533203125 400.0000305175781" xmlns="http://www.w3.org/2000/svg"><g><g><g><g><g><line x1="70" y1="378" x2="65" y2="378" style="visibility: inherit;" fill="rgb(0, 0, 0)" stroke="rgb(204, 204, 204)" stroke-width="1px"></line><line x1="70" y1="346.5000000000001" x2="65" y2="346.5000000000001" style="visibility: inherit;" fill="rgb(0, 0, 0)" stroke="rgb(204, 204, 204)" stroke-width="1px"></line><line x1="70" y1="315.0000000000001" x2="65" y2="315.0000000000001" style="visibility: inherit;" fill="rgb(0, 0, 0)" stroke="rgb(204, 204, 204)" stroke-width="1px"></line><line x1="70" y1="283.5000000000001" x2="65" y2="283.5000000000001" style="visibility: inherit;" fill="rgb(0, 0, 0)" stroke="rgb(204, 204, 204)" stroke-width="1px"></line><line x1="70" y1="252.00000000000006" x2="65" y2="252.00000000000006" style="visibility: inherit;" fill="rgb(0, 0, 0)" stroke="rgb(204, 204, 204)" stroke-width="1px"></line><line x1="70" y1="220.50000000000003" x2="65" y2="220.50000000000003" style="visibility: inherit;" fill="rgb(0, 0, 0)" stroke="rgb(204, 204, 204)" stroke-width="1px"></line><line x1="70" y1="189" x2="65" y2="189" style="visibility: inherit;" fill="rgb(0, 0, 0)" stroke="rgb(204, 204, 204)" stroke-width="1px"></line><line x1="70" y1="157.50000000000014" x2="65" y2="157.50000000000014" style="visibility: inherit;" fill="rgb(0, 0, 0)" stroke="rgb(204, 204, 204)" stroke-width="1px"></line><line x1="70" y1="126.00000000000009" x2="65" y2="126.00000000000009" style="visibility: inherit;" fill="rgb(0, 0, 0)" stroke="rgb(204, 204, 204)" stroke-width="1px"></line><line x1="70" y1="94.50000000000006" x2="65" y2="94.50000000000006" style="visibility: inherit;" fill="rgb(0, 0, 0)" stroke="rgb(204, 204, 204)" stroke-width="1px"></line><line x1="70" y1="63.00000000000006" x2="65" y2="63.00000000000006" style="visibility: inherit;" fill="rgb(0, 0, 0)" stroke="rgb(204, 204, 204)" stroke-width="1px"></line><line x1="70" y1="31.5" x2="65" y2="31.5" style="visibility: inherit;" fill="rgb(0, 0, 0)" stroke="rgb(204, 204, 204)" stroke-width="1px"></line><line x1="70" y1="0" x2="65" y2="0" style="visibility: inherit;" fill="rgb(0, 0, 0)" stroke="rgb(204, 204, 204)" stroke-width="1px"></line></g><g transform="translate(60, 0)"><text x="0" y="378" dx="0em" dy="0.3em" style="text-anchor: end; visibility: hidden; font-family: &quot;Helvetica Neue&quot;, sans-serif; font-size: 12px; font-weight: 200;" fill="rgb(50, 49, 63)" stroke="none" stroke-width="1px">0.400</text><text x="0" y="346.5000000000001" dx="0em" dy="0.3em" style="text-anchor: end; visibility: inherit; font-family: &quot;Helvetica Neue&quot;, sans-serif; font-size: 12px; font-weight: 200;" fill="rgb(50, 49, 63)" stroke="none" stroke-width="1px">0.410</text><text x="0" y="315.0000000000001" dx="0em" dy="0.3em" style="text-anchor: end; visibility: inherit; font-family: &quot;Helvetica Neue&quot;, sans-serif; font-size: 12px; font-weight: 200;" fill="rgb(50, 49, 63)" stroke="none" stroke-width="1px">0.420</text><text x="0" y="283.5000000000001" dx="0em" dy="0.3em" style="text-anchor: end; visibility: inherit; font-family: &quot;Helvetica Neue&quot;, sans-serif; font-size: 12px; font-weight: 200;" fill="rgb(50, 49, 63)" stroke="none" stroke-width="1px">0.430</text><text x="0" y="252.00000000000006" dx="0em" dy="0.3em" style="text-anchor: end; visibility: inherit; font-family: &quot;Helvetica Neue&quot;, sans-serif; font-size: 12px; font-weight: 200;" fill="rgb(50, 49, 63)" stroke="none" stroke-width="1px">0.440</text><text x="0" y="220.50000000000003" dx="0em" dy="0.3em" style="text-anchor: end; visibility: inherit; font-family: &quot;Helvetica Neue&quot;, sans-serif; font-size: 12px; font-weight: 200;" fill="rgb(50, 49, 63)" stroke="none" stroke-width="1px">0.450</text><text x="0" y="189" dx="0em" dy="0.3em" style="text-anchor: end; visibility: inherit; font-family: &quot;Helvetica Neue&quot;, sans-serif; font-size: 12px; font-weight: 200;" fill="rgb(50, 49, 63)" stroke="none" stroke-width="1px">0.460</text><text x="0" y="157.50000000000014" dx="0em" dy="0.3em" style="text-anchor: end; visibility: inherit; font-family: &quot;Helvetica Neue&quot;, sans-serif; font-size: 12px; font-weight: 200;" fill="rgb(50, 49, 63)" stroke="none" stroke-width="1px">0.470</text><text x="0" y="126.00000000000009" dx="0em" dy="0.3em" style="text-anchor: end; visibility: inherit; font-family: &quot;Helvetica Neue&quot;, sans-serif; font-size: 12px; font-weight: 200;" fill="rgb(50, 49, 63)" stroke="none" stroke-width="1px">0.480</text><text x="0" y="94.50000000000006" dx="0em" dy="0.3em" style="text-anchor: end; visibility: inherit; font-family: &quot;Helvetica Neue&quot;, sans-serif; font-size: 12px; font-weight: 200;" fill="rgb(50, 49, 63)" stroke="none" stroke-width="1px">0.490</text><text x="0" y="63.00000000000006" dx="0em" dy="0.3em" style="text-anchor: end; visibility: inherit; font-family: &quot;Helvetica Neue&quot;, sans-serif; font-size: 12px; font-weight: 200;" fill="rgb(50, 49, 63)" stroke="none" stroke-width="1px">0.500</text><text x="0" y="31.5" dx="0em" dy="0.3em" style="text-anchor: end; visibility: inherit; font-family: &quot;Helvetica Neue&quot;, sans-serif; font-size: 12px; font-weight: 200;" fill="rgb(50, 49, 63)" stroke="none" stroke-width="1px">0.510</text><text x="0" y="0" dx="0em" dy="0.3em" style="text-anchor: end; visibility: hidden; font-family: &quot;Helvetica Neue&quot;, sans-serif; font-size: 12px; font-weight: 200;" fill="rgb(50, 49, 63)" stroke="none" stroke-width="1px">0.520</text></g><line x1="70" y1="0" x2="70" y2="378" fill="rgb(0, 0, 0)" stroke="rgb(204, 204, 204)" stroke-width="1px"></line></g></g><g transform="translate(70, 0)" clip-path="url(#clip_0)"><clipPath id="clip_0"><rect width="1567" height="377"></rect></clipPath><g><g><g><line x1="0" y1="0" x2="0" y2="378" fill="rgb(0, 0, 0)" stroke="rgb(60, 60, 60)" stroke-width="1px" opacity="0.25"></line><line x1="156.747" y1="0" x2="156.747" y2="378" fill="rgb(0, 0, 0)" stroke="rgb(60, 60, 60)" stroke-width="1px" opacity="0.25"></line><line x1="313.494" y1="0" x2="313.494" y2="378" fill="rgb(0, 0, 0)" stroke="rgb(60, 60, 60)" stroke-width="1px" opacity="0.25"></line><line x1="470.241" y1="0" x2="470.241" y2="378" fill="rgb(0, 0, 0)" stroke="rgb(60, 60, 60)" stroke-width="1px" opacity="0.25"></line><line x1="626.988" y1="0" x2="626.988" y2="378" fill="rgb(0, 0, 0)" stroke="rgb(60, 60, 60)" stroke-width="1px" opacity="0.25"></line><line x1="783.735" y1="0" x2="783.735" y2="378" fill="rgb(0, 0, 0)" stroke="rgb(60, 60, 60)" stroke-width="1px" opacity="0.25"></line><line x1="940.482" y1="0" x2="940.482" y2="378" fill="rgb(0, 0, 0)" stroke="rgb(60, 60, 60)" stroke-width="1px" opacity="0.25"></line><line x1="1097.229" y1="0" x2="1097.229" y2="378" fill="rgb(0, 0, 0)" stroke="rgb(60, 60, 60)" stroke-width="1px" opacity="0.25"></line><line x1="1253.976" y1="0" x2="1253.976" y2="378" fill="rgb(0, 0, 0)" stroke="rgb(60, 60, 60)" stroke-width="1px" opacity="0.25"></line><line x1="1410.723" y1="0" x2="1410.723" y2="378" fill="rgb(0, 0, 0)" stroke="rgb(60, 60, 60)" stroke-width="1px" opacity="0.25"></line><line x1="1567.47" y1="0" x2="1567.47" y2="378" fill="rgb(0, 0, 0)" stroke="rgb(60, 60, 60)" stroke-width="1px" opacity="0.25"></line></g><g><line x1="0" y1="378" x2="1567.47" y2="378" fill="rgb(0, 0, 0)" stroke="rgb(60, 60, 60)" stroke-width="1px" opacity="0.25"></line><line x1="0" y1="346.5000000000001" x2="1567.47" y2="346.5000000000001" fill="rgb(0, 0, 0)" stroke="rgb(60, 60, 60)" stroke-width="1px" opacity="0.25"></line><line x1="0" y1="315.0000000000001" x2="1567.47" y2="315.0000000000001" fill="rgb(0, 0, 0)" stroke="rgb(60, 60, 60)" stroke-width="1px" opacity="0.25"></line><line x1="0" y1="283.5000000000001" x2="1567.47" y2="283.5000000000001" fill="rgb(0, 0, 0)" stroke="rgb(60, 60, 60)" stroke-width="1px" opacity="0.25"></line><line x1="0" y1="252.00000000000006" x2="1567.47" y2="252.00000000000006" fill="rgb(0, 0, 0)" stroke="rgb(60, 60, 60)" stroke-width="1px" opacity="0.25"></line><line x1="0" y1="220.50000000000003" x2="1567.47" y2="220.50000000000003" fill="rgb(0, 0, 0)" stroke="rgb(60, 60, 60)" stroke-width="1px" opacity="0.25"></line><line x1="0" y1="189" x2="1567.47" y2="189" fill="rgb(0, 0, 0)" stroke="rgb(60, 60, 60)" stroke-width="1px" opacity="0.25"></line><line x1="0" y1="157.50000000000014" x2="1567.47" y2="157.50000000000014" fill="rgb(0, 0, 0)" stroke="rgb(60, 60, 60)" stroke-width="1px" opacity="0.25"></line><line x1="0" y1="126.00000000000009" x2="1567.47" y2="126.00000000000009" fill="rgb(0, 0, 0)" stroke="rgb(60, 60, 60)" stroke-width="1px" opacity="0.25"></line><line x1="0" y1="94.50000000000006" x2="1567.47" y2="94.50000000000006" fill="rgb(0, 0, 0)" stroke="rgb(60, 60, 60)" stroke-width="1px" opacity="0.25"></line><line x1="0" y1="63.00000000000006" x2="1567.47" y2="63.00000000000006" fill="rgb(0, 0, 0)" stroke="rgb(60, 60, 60)" stroke-width="1px" opacity="0.25"></line><line x1="0" y1="31.5" x2="1567.47" y2="31.5" fill="rgb(0, 0, 0)" stroke="rgb(60, 60, 60)" stroke-width="1px" opacity="0.25"></line><line x1="0" y1="0" x2="1567.47" y2="0" fill="rgb(0, 0, 0)" stroke="rgb(60, 60, 60)" stroke-width="1px" opacity="0.25"></line></g></g></g><g><g><line x1="0" y1="1638" x2="1567.47" y2="1638" fill="rgb(0, 0, 0)" stroke="rgb(153, 153, 153)" stroke-width="1.5px"></line></g></g><g><g><line x1="156.747" y1="0" x2="156.747" y2="378" fill="rgb(0, 0, 0)" stroke="rgb(153, 153, 153)" stroke-width="1.5px"></line></g></g><g><g><g><g><g><path stroke="rgb(51, 187, 238)" stroke-width="2px" d="M156.747,323.88318228721624L164.58435,365.9496073722838L172.42170000000002,341.47464169774736L180.25905,324.5814379635544L188.0964,329.5705449832637L195.93375,324.9027966927542L203.77110000000002,319.41328390437434L211.60845,309.2380330034541L219.44580000000002,299.77309389280003L227.28314999999998,281.98277265505664L235.1205,269.64724748288654L242.95785,256.0071875075193L250.79520000000002,244.76612007658576L258.63255000000004,232.6468555267668L266.4699,216.97533060052544L274.30725,201.0560768649859L282.14459999999997,187.30789414710773L289.98195,176.86521167455248L297.8193,167.1185722559379L305.65665,158.13122099364116L313.494,152.3376674358503L321.33135,144.9011434279202L329.1687,140.12209648869722L337.00605,135.9137801021543L344.84340000000003,129.88502879918641L352.68075,124.04398179256756L360.5181,121.57430210189364L368.35544999999996,115.2830454248267L376.1928,107.31054940549745L384.03015,93.82169562832081L391.8675,86.0999892855674L399.70485,79.85283944389442L407.54220000000004,77.02349616714758L415.37955000000005,77.84916239736873L423.2169,74.24576580146424L431.05425,70.9443952197226L438.89160000000004,72.2524707847956L446.72895,69.83223190208355L454.56629999999996,68.45470226875057L462.40364999999997,69.56029229950337L470.241,73.53421107605794L478.07835,73.10235552573715L485.9157,71.16317620569805L493.75305000000003,67.9232525980483L501.59040000000005,65.86225219681353L509.42775,64.57495820582545L517.2651000000001,64.17726495300622L525.1024500000001,78.49320024543289L532.9398,77.76971866066259L540.77715,73.8215389333347L548.6145,72.60897431862838L556.45185,68.85926190668755L564.2891999999999,66.9694351890912L572.12655,65.24212187166216L579.9639,64.28211246511421L587.80125,63.723380247241494L595.6386,63.90157473056689L603.47595,68.27033379059606L611.3133,66.74630493153069L619.15065,65.2147381438549L626.988,64.29219318233345L634.8253500000001,72.78637412072686L642.6627,69.66741594601535L650.50005,68.27898350315593L658.3374,72.53174638126677L666.17475,70.33099643811192L674.0121,67.22796645417583L681.84945,65.37223171386006L689.6868000000001,69.61163784976537L697.5241500000001,66.98579572388957L705.3615,65.34468898027797L713.19885,64.36423063784639L721.0362,63.78571887320169L728.87355,63.445070573722944L736.7108999999999,69.10677463354801L744.5482499999999,67.69784177864864L752.3856,65.72227428868575L760.22295,64.61030830451949L768.0603,63.93013609355154L775.89765,63.54125884118952L783.735,63.30778228606761L791.57235,63.17205226043461L799.4097,63.0939187265609L807.2470500000001,63.048014930318175L815.0844000000001,63.02032244886772L822.9217500000001,63.0049836914888L830.7591000000001,71.19288477189252L838.5964500000001,82.70058193735446L846.4338,77.29750866253465L854.27115,72.2972674760777L862.1085,69.86729602775335L869.9458500000001,72.01596696830597L877.7832000000001,70.54859359059822L885.62055,67.34831089373876L893.4579,65.5655776655463L901.2952499999999,64.49728956197436L909.1325999999999,63.862249746171926L916.9699499999999,63.495269903092435L924.8072999999999,63.28206646951958L932.64465,63.15602195568624L940.482,63.07934382145248L948.31935,63.02680307975214L956.1567,64.60350970238926L963.99405,79.45054860002091L971.8314,75.23990525654739L979.66875,70.15829137475367L987.5061000000001,67.32985963529995L995.3434500000001,65.52198780838643L1003.1808000000001,64.41383293428407L1011.01815,63.820361871471334L1018.8555,63.4762204283179L1026.6928500000001,63.26665638647671L1034.5302000000001,64.68887979246495L1042.3675500000002,69.84904221568888L1050.2049000000002,68.06652333661543L1058.0422500000002,66.653834094552L1065.8796,65.16135849353554L1073.71695,64.23816054938379L1081.5543,63.689048301447315L1089.39165,63.39510412887864L1097.229,63.22324373648246L1105.06635,63.12418300107538L1112.9037,63.065497578355235L1120.7410499999999,63.02855898211743L1128.5783999999999,63.00977540773363L1136.41575,63.73409035660154L1144.2531,75.69350919042438L1152.09045,72.03973622867102L1159.9278,70.53656949847112L1167.76515,67.37609390168882L1175.6025,65.58848092406691L1183.43985,64.49142993360601L1191.2772,63.84318788570073L1199.11455,63.48218054605661L1206.9519,63.27293612380697L1214.78925,63.15152007234013L1222.6266,63.07874554331255L1230.46395,63.43668798169591L1238.3013,71.66470844484036L1246.13865,68.26382572017121L1253.976,66.05578140355351L1261.8133500000001,64.7706836935115L1269.6507000000001,64.02546010471787L1277.48805,63.58148022924314L1285.3254,63.3307885911135L1293.16275,63.18495482123302L1301.0001,63.16046501348251L1308.83745,67.38091479033136L1316.6748,66.17281199866471L1324.51215,71.55891295298301L1332.3495,68.4028230191729L1340.18685,66.16463931092386L1348.0242,64.8553747158573L1355.86155,64.08363469966218L1363.6989,63.62644863443359L1371.53625,63.3607737083243L1379.3736000000001,63.20001691931526L1387.2109500000001,65.40990318270946L1395.0483000000002,64.86223147757312L1402.88565,64.10194300679848L1410.723,63.6660849754125" style="fill: none;" fill="none"></path></g><g><path style="fill: none;" fill="none" stroke="none" stroke-width="1px"></path></g><g><path style="fill: none;" fill="none" stroke="none" stroke-width="1px"></path></g><g><path style="fill: none;" fill="none" stroke="none" stroke-width="1px"></path></g></g></g></g><g opacity="0.2"><g><g><g><path stroke="rgb(51, 187, 238)" stroke-width="2px" d="M156.747,323.88318228721624L164.58435,391.18946242332464L172.42170000000002,317.9786746501923L180.25905,304.71503037214285L188.0964,336.0843231081963L195.93375,318.44562041759497L203.77110000000002,311.5631927847863L211.60845,294.40241950750357L219.44580000000002,285.8141471743584L227.28314999999998,255.56621897220617L235.1205,251.25584203004843L242.95785,235.62132614851004L250.79520000000002,227.94122296571737L258.63255000000004,214.49170160293585L266.4699,193.4864645004273L274.30725,177.18842375278476L282.14459999999997,166.69143784046176L289.98195,161.20383936166766L297.8193,152.50009793043142L305.65665,144.65101557970053L313.494,143.6476548314095L321.33135,133.74660211801535L329.1687,132.9536204338074L337.00605,129.60135537385943L344.84340000000003,120.8419446945191L352.68075,115.28243619203573L360.5181,117.86978888511663L368.35544999999996,105.84617006778723L376.1928,95.35181272029882L384.03015,73.58842241764074L391.8675,74.51743233203894L399.70485,70.48211592435842L407.54220000000004,72.77948158979422L415.37955000000005,79.08766168355947L423.2169,68.84067106246954L431.05425,65.99233943223959L438.89160000000004,74.21458411216742L446.72895,66.201873600483L454.56629999999996,66.3884078264237L462.40364999999997,71.21867734193808L470.241,79.49508923292166L478.07835,72.4545722007752L485.9157,68.2544072270394L493.75305000000003,63.063367187976894L501.59040000000005,62.77075159549719L509.42775,62.644017219543514L517.2651000000001,63.58072507381445L525.1024500000001,99.96710318326956L532.9398,76.68449628353125L540.77715,67.89926934242254L548.6145,70.79012739658361L556.45185,63.23469328880316L564.2891999999999,64.13469511270529L572.12655,62.65115189552313L579.9639,62.84209835529333L587.80125,62.8852819204331L595.6386,64.16886645555502L603.47595,74.82347238063818L611.3133,64.46026164293295L619.15065,62.917387962341365L626.988,62.908375740051326L634.8253500000001,85.52764552831655L642.6627,64.98897868394857L650.50005,66.19633483886724L658.3374,78.91089069843298L666.17475,67.02987152338034L674.0121,62.57342147827154L681.84945,62.58862960338598L689.6868000000001,75.97074705362326L697.5241500000001,63.0470325350762L705.3615,62.88302886486059L713.19885,62.89354312419897L721.0362,62.91795122623449L728.87355,62.934098124504146L736.7108999999999,77.59933072328573L744.5482499999999,65.5844424962998L752.3856,62.75892305374151L760.22295,62.942359328270015L768.0603,62.909877777099666L775.89765,62.95794296264654L783.735,62.957567453384456L791.57235,62.96845722198492L799.4097,62.97671842575079L807.2470500000001,62.97915923595434L815.0844000000001,62.97878372669226L822.9217500000001,62.98197555541998L830.7591000000001,83.47473639249807L838.5964500000001,99.96212768554693L846.4338,69.19289875030523L854.27115,64.79690569639212L862.1085,66.22233885526663L869.9458500000001,75.23897337913519L877.7832000000001,68.34753352403646L885.62055,62.547886848449764L893.4579,62.8914778232575L901.2952499999999,62.89485740661627L909.1325999999999,62.909690022468624L916.9699499999999,62.94480013847357L924.8072999999999,62.96226131916052L932.64465,62.96695518493658L940.482,62.964326620101986L948.31935,62.94799196720129L956.1567,66.96856963634497L963.99405,101.72110694646841L971.8314,68.92394024133688L979.66875,62.535870552063045L987.5061000000001,63.08721202611929L995.3434500000001,62.81018006801611L1003.1808000000001,62.751600623130855L1011.01815,62.930155277252254L1018.8555,62.96000826358801L1026.6928500000001,62.95231032371527L1034.5302000000001,66.82221490144735L1042.3675500000002,77.58928585052496L1050.2049000000002,65.39274501800543L1058.0422500000002,64.53480023145681L1065.8796,62.922645092010555L1073.71695,62.85336363315588L1081.5543,62.8653799295426L1089.39165,62.95418787002569L1097.229,62.96545314788824L1105.06635,62.975591897964534L1112.9037,62.97746944427496L1120.7410499999999,62.97315108776098L1128.5783999999999,62.981600046157894L1136.41575,64.82056277990347L1144.2531,93.63263744115835L1152.09045,66.55907678604132L1159.9278,68.2818194031716L1167.76515,62.63538050651556L1175.6025,62.90706145763403L1183.43985,62.84585344791418L1191.2772,62.87082481384283L1199.11455,62.94066953659063L1206.9519,62.959069490432796L1214.78925,62.96939599514013L1222.6266,62.969583749771175L1230.46395,63.97360163927084L1238.3013,84.00673913955694L1246.13865,63.162501633167324L1253.976,62.74371492862707L1261.8133500000001,62.84303712844854L1269.6507000000001,62.90762472152716L1277.48805,62.91551041603094L1285.3254,62.95475113391882L1293.16275,62.96620416641241L1301.0001,63.12373030185705L1308.83745,73.71158945560461L1316.6748,64.36065781116491L1324.51215,79.6380643844605L1332.3495,63.66868811845785L1340.18685,62.80736374855047L1348.0242,62.8914778232575L1355.86155,62.92602467536932L1363.6989,62.94066953659063L1371.53625,62.96226131916052L1379.3736000000001,62.958881735801754L1387.2109500000001,68.72473257780081L1395.0483000000002,64.04072391986853L1402.88565,62.96151030063635L1410.723,63.01229792833334" style="fill: none;" fill="none"></path></g><g><path style="fill: none;" fill="none" stroke="none" stroke-width="1px"></path></g><g><path style="fill: none;" fill="none" stroke="none" stroke-width="1px"></path></g><g><path style="fill: none;" fill="none" stroke="none" stroke-width="1px"></path></g></g></g></g></g></g><g transform="translate(70, 378)" clip-path="url(#clip_1)"><clipPath id="clip_1"><rect width="1567" height="21"></rect></clipPath><g><g><line x1="0" y1="0" x2="0" y2="5" style="visibility: inherit;" fill="rgb(0, 0, 0)" stroke="rgb(204, 204, 204)" stroke-width="1px"></line><line x1="156.747" y1="0" x2="156.747" y2="5" style="visibility: inherit;" fill="rgb(0, 0, 0)" stroke="rgb(204, 204, 204)" stroke-width="1px"></line><line x1="313.494" y1="0" x2="313.494" y2="5" style="visibility: inherit;" fill="rgb(0, 0, 0)" stroke="rgb(204, 204, 204)" stroke-width="1px"></line><line x1="470.241" y1="0" x2="470.241" y2="5" style="visibility: inherit;" fill="rgb(0, 0, 0)" stroke="rgb(204, 204, 204)" stroke-width="1px"></line><line x1="626.988" y1="0" x2="626.988" y2="5" style="visibility: inherit;" fill="rgb(0, 0, 0)" stroke="rgb(204, 204, 204)" stroke-width="1px"></line><line x1="783.735" y1="0" x2="783.735" y2="5" style="visibility: inherit;" fill="rgb(0, 0, 0)" stroke="rgb(204, 204, 204)" stroke-width="1px"></line><line x1="940.482" y1="0" x2="940.482" y2="5" style="visibility: inherit;" fill="rgb(0, 0, 0)" stroke="rgb(204, 204, 204)" stroke-width="1px"></line><line x1="1097.229" y1="0" x2="1097.229" y2="5" style="visibility: inherit;" fill="rgb(0, 0, 0)" stroke="rgb(204, 204, 204)" stroke-width="1px"></line><line x1="1253.976" y1="0" x2="1253.976" y2="5" style="visibility: inherit;" fill="rgb(0, 0, 0)" stroke="rgb(204, 204, 204)" stroke-width="1px"></line><line x1="1410.723" y1="0" x2="1410.723" y2="5" style="visibility: inherit;" fill="rgb(0, 0, 0)" stroke="rgb(204, 204, 204)" stroke-width="1px"></line><line x1="1567.47" y1="0" x2="1567.47" y2="5" style="visibility: inherit;" fill="rgb(0, 0, 0)" stroke="rgb(204, 204, 204)" stroke-width="1px"></line></g><g transform="translate(0, 8)"><text x="0" y="0" dx="0em" dy="0.95em" style="text-anchor: middle; visibility: hidden; font-family: &quot;Helvetica Neue&quot;, sans-serif; font-size: 12px; font-weight: 200;" fill="rgb(50, 49, 63)" stroke="none" stroke-width="1px">-20.00</text><text x="156.747" y="0" dx="0em" dy="0.95em" style="text-anchor: middle; visibility: inherit; font-family: &quot;Helvetica Neue&quot;, sans-serif; font-size: 12px; font-weight: 200;" fill="rgb(50, 49, 63)" stroke="none" stroke-width="1px">0.000</text><text x="313.494" y="0" dx="0em" dy="0.95em" style="text-anchor: middle; visibility: inherit; font-family: &quot;Helvetica Neue&quot;, sans-serif; font-size: 12px; font-weight: 200;" fill="rgb(50, 49, 63)" stroke="none" stroke-width="1px">20.00</text><text x="470.241" y="0" dx="0em" dy="0.95em" style="text-anchor: middle; visibility: inherit; font-family: &quot;Helvetica Neue&quot;, sans-serif; font-size: 12px; font-weight: 200;" fill="rgb(50, 49, 63)" stroke="none" stroke-width="1px">40.00</text><text x="626.988" y="0" dx="0em" dy="0.95em" style="text-anchor: middle; visibility: inherit; font-family: &quot;Helvetica Neue&quot;, sans-serif; font-size: 12px; font-weight: 200;" fill="rgb(50, 49, 63)" stroke="none" stroke-width="1px">60.00</text><text x="783.735" y="0" dx="0em" dy="0.95em" style="text-anchor: middle; visibility: inherit; font-family: &quot;Helvetica Neue&quot;, sans-serif; font-size: 12px; font-weight: 200;" fill="rgb(50, 49, 63)" stroke="none" stroke-width="1px">80.00</text><text x="940.482" y="0" dx="0em" dy="0.95em" style="text-anchor: middle; visibility: inherit; font-family: &quot;Helvetica Neue&quot;, sans-serif; font-size: 12px; font-weight: 200;" fill="rgb(50, 49, 63)" stroke="none" stroke-width="1px">100.0</text><text x="1097.229" y="0" dx="0em" dy="0.95em" style="text-anchor: middle; visibility: inherit; font-family: &quot;Helvetica Neue&quot;, sans-serif; font-size: 12px; font-weight: 200;" fill="rgb(50, 49, 63)" stroke="none" stroke-width="1px">120.0</text><text x="1253.976" y="0" dx="0em" dy="0.95em" style="text-anchor: middle; visibility: inherit; font-family: &quot;Helvetica Neue&quot;, sans-serif; font-size: 12px; font-weight: 200;" fill="rgb(50, 49, 63)" stroke="none" stroke-width="1px">140.0</text><text x="1410.723" y="0" dx="0em" dy="0.95em" style="text-anchor: middle; visibility: inherit; font-family: &quot;Helvetica Neue&quot;, sans-serif; font-size: 12px; font-weight: 200;" fill="rgb(50, 49, 63)" stroke="none" stroke-width="1px">160.0</text><text x="1567.47" y="0" dx="0em" dy="0.95em" style="text-anchor: middle; visibility: hidden; font-family: &quot;Helvetica Neue&quot;, sans-serif; font-size: 12px; font-weight: 200;" fill="rgb(50, 49, 63)" stroke="none" stroke-width="1px">180.0</text></g><line x1="0" y1="0" x2="1567.47" y2="0" fill="rgb(0, 0, 0)" stroke="rgb(204, 204, 204)" stroke-width="1px"></line></g></g></g></g></svg>