<svg viewBox="0 0 330.0000305175781 200.00001525878906" xmlns="http://www.w3.org/2000/svg"><g><g><g><g><g><line x1="82" y1="178" x2="77" y2="178" style="visibility: inherit;" fill="rgb(0, 0, 0)" stroke="rgb(204, 204, 204)" stroke-width="1px"></line><line x1="82" y1="163.16666666666666" x2="77" y2="163.16666666666666" style="visibility: inherit;" fill="rgb(0, 0, 0)" stroke="rgb(204, 204, 204)" stroke-width="1px"></line><line x1="82" y1="148.33333333333334" x2="77" y2="148.33333333333334" style="visibility: inherit;" fill="rgb(0, 0, 0)" stroke="rgb(204, 204, 204)" stroke-width="1px"></line><line x1="82" y1="133.5" x2="77" y2="133.5" style="visibility: inherit;" fill="rgb(0, 0, 0)" stroke="rgb(204, 204, 204)" stroke-width="1px"></line><line x1="82" y1="118.66666666666667" x2="77" y2="118.66666666666667" style="visibility: inherit;" fill="rgb(0, 0, 0)" stroke="rgb(204, 204, 204)" stroke-width="1px"></line><line x1="82" y1="103.83333333333334" x2="77" y2="103.83333333333334" style="visibility: inherit;" fill="rgb(0, 0, 0)" stroke="rgb(204, 204, 204)" stroke-width="1px"></line><line x1="82" y1="89.00000000000001" x2="77" y2="89.00000000000001" style="visibility: inherit;" fill="rgb(0, 0, 0)" stroke="rgb(204, 204, 204)" stroke-width="1px"></line><line x1="82" y1="74.16666666666669" x2="77" y2="74.16666666666669" style="visibility: inherit;" fill="rgb(0, 0, 0)" stroke="rgb(204, 204, 204)" stroke-width="1px"></line><line x1="82" y1="59.33333333333336" x2="77" y2="59.33333333333336" style="visibility: inherit;" fill="rgb(0, 0, 0)" stroke="rgb(204, 204, 204)" stroke-width="1px"></line><line x1="82" y1="44.50000000000003" x2="77" y2="44.50000000000003" style="visibility: inherit;" fill="rgb(0, 0, 0)" stroke="rgb(204, 204, 204)" stroke-width="1px"></line><line x1="82" y1="29.666666666666686" x2="77" y2="29.666666666666686" style="visibility: inherit;" fill="rgb(0, 0, 0)" stroke="rgb(204, 204, 204)" stroke-width="1px"></line><line x1="82" y1="14.833333333333343" x2="77" y2="14.833333333333343" style="visibility: inherit;" fill="rgb(0, 0, 0)" stroke="rgb(204, 204, 204)" stroke-width="1px"></line><line x1="82" y1="0" x2="77" y2="0" style="visibility: inherit;" fill="rgb(0, 0, 0)" stroke="rgb(204, 204, 204)" stroke-width="1px"></line></g><g transform="translate(72, 0)"><text x="0" y="178" dx="0em" dy="0.3em" style="text-anchor: end; visibility: hidden; font-family: &quot;Helvetica Neue&quot;, sans-serif; font-size: 12px; font-weight: 200;" fill="rgb(50, 49, 63)" stroke="none" stroke-width="1px">-0.100</text><text x="0" y="163.16666666666666" dx="0em" dy="0.3em" style="text-anchor: end; visibility: inherit; font-family: &quot;Helvetica Neue&quot;, sans-serif; font-size: 12px; font-weight: 200;" fill="rgb(50, 49, 63)" stroke="none" stroke-width="1px">0.00</text><text x="0" y="148.33333333333334" dx="0em" dy="0.3em" style="text-anchor: end; visibility: hidden; font-family: &quot;Helvetica Neue&quot;, sans-serif; font-size: 12px; font-weight: 200;" fill="rgb(50, 49, 63)" stroke="none" stroke-width="1px">0.100</text><text x="0" y="133.5" dx="0em" dy="0.3em" style="text-anchor: end; visibility: inherit; font-family: &quot;Helvetica Neue&quot;, sans-serif; font-size: 12px; font-weight: 200;" fill="rgb(50, 49, 63)" stroke="none" stroke-width="1px">0.200</text><text x="0" y="118.66666666666667" dx="0em" dy="0.3em" style="text-anchor: end; visibility: hidden; font-family: &quot;Helvetica Neue&quot;, sans-serif; font-size: 12px; font-weight: 200;" fill="rgb(50, 49, 63)" stroke="none" stroke-width="1px">0.300</text><text x="0" y="103.83333333333334" dx="0em" dy="0.3em" style="text-anchor: end; visibility: inherit; font-family: &quot;Helvetica Neue&quot;, sans-serif; font-size: 12px; font-weight: 200;" fill="rgb(50, 49, 63)" stroke="none" stroke-width="1px">0.400</text><text x="0" y="89.00000000000001" dx="0em" dy="0.3em" style="text-anchor: end; visibility: hidden; font-family: &quot;Helvetica Neue&quot;, sans-serif; font-size: 12px; font-weight: 200;" fill="rgb(50, 49, 63)" stroke="none" stroke-width="1px">0.500</text><text x="0" y="74.16666666666669" dx="0em" dy="0.3em" style="text-anchor: end; visibility: inherit; font-family: &quot;Helvetica Neue&quot;, sans-serif; font-size: 12px; font-weight: 200;" fill="rgb(50, 49, 63)" stroke="none" stroke-width="1px">0.600</text><text x="0" y="59.33333333333336" dx="0em" dy="0.3em" style="text-anchor: end; visibility: hidden; font-family: &quot;Helvetica Neue&quot;, sans-serif; font-size: 12px; font-weight: 200;" fill="rgb(50, 49, 63)" stroke="none" stroke-width="1px">0.700</text><text x="0" y="44.50000000000003" dx="0em" dy="0.3em" style="text-anchor: end; visibility: inherit; font-family: &quot;Helvetica Neue&quot;, sans-serif; font-size: 12px; font-weight: 200;" fill="rgb(50, 49, 63)" stroke="none" stroke-width="1px">0.800</text><text x="0" y="29.666666666666686" dx="0em" dy="0.3em" style="text-anchor: end; visibility: hidden; font-family: &quot;Helvetica Neue&quot;, sans-serif; font-size: 12px; font-weight: 200;" fill="rgb(50, 49, 63)" stroke="none" stroke-width="1px">0.900</text><text x="0" y="14.833333333333343" dx="0em" dy="0.3em" style="text-anchor: end; visibility: inherit; font-family: &quot;Helvetica Neue&quot;, sans-serif; font-size: 12px; font-weight: 200;" fill="rgb(50, 49, 63)" stroke="none" stroke-width="1px">1.00</text><text x="0" y="0" dx="0em" dy="0.3em" style="text-anchor: end; visibility: hidden; font-family: &quot;Helvetica Neue&quot;, sans-serif; font-size: 12px; font-weight: 200;" fill="rgb(50, 49, 63)" stroke="none" stroke-width="1px">1.10</text></g><line x1="82" y1="0" x2="82" y2="178" fill="rgb(0, 0, 0)" stroke="rgb(204, 204, 204)" stroke-width="1px"></line></g></g><g transform="translate(82, 0)" clip-path="url(#clip_0)"><clipPath id="clip_0"><rect width="247" height="177"></rect></clipPath><g><g><g><line x1="0" y1="0" x2="0" y2="178" fill="rgb(0, 0, 0)" stroke="rgb(60, 60, 60)" stroke-width="1px" opacity="0.25"></line><line x1="24.8" y1="0" x2="24.8" y2="178" fill="rgb(0, 0, 0)" stroke="rgb(60, 60, 60)" stroke-width="1px" opacity="0.25"></line><line x1="49.6" y1="0" x2="49.6" y2="178" fill="rgb(0, 0, 0)" stroke="rgb(60, 60, 60)" stroke-width="1px" opacity="0.25"></line><line x1="74.39999999999999" y1="0" x2="74.39999999999999" y2="178" fill="rgb(0, 0, 0)" stroke="rgb(60, 60, 60)" stroke-width="1px" opacity="0.25"></line><line x1="99.2" y1="0" x2="99.2" y2="178" fill="rgb(0, 0, 0)" stroke="rgb(60, 60, 60)" stroke-width="1px" opacity="0.25"></line><line x1="124" y1="0" x2="124" y2="178" fill="rgb(0, 0, 0)" stroke="rgb(60, 60, 60)" stroke-width="1px" opacity="0.25"></line><line x1="148.79999999999998" y1="0" x2="148.79999999999998" y2="178" fill="rgb(0, 0, 0)" stroke="rgb(60, 60, 60)" stroke-width="1px" opacity="0.25"></line><line x1="173.6" y1="0" x2="173.6" y2="178" fill="rgb(0, 0, 0)" stroke="rgb(60, 60, 60)" stroke-width="1px" opacity="0.25"></line><line x1="198.4" y1="0" x2="198.4" y2="178" fill="rgb(0, 0, 0)" stroke="rgb(60, 60, 60)" stroke-width="1px" opacity="0.25"></line><line x1="223.20000000000002" y1="0" x2="223.20000000000002" y2="178" fill="rgb(0, 0, 0)" stroke="rgb(60, 60, 60)" stroke-width="1px" opacity="0.25"></line><line x1="248" y1="0" x2="248" y2="178" fill="rgb(0, 0, 0)" stroke="rgb(60, 60, 60)" stroke-width="1px" opacity="0.25"></line></g><g><line x1="0" y1="178" x2="248" y2="178" fill="rgb(0, 0, 0)" stroke="rgb(60, 60, 60)" stroke-width="1px" opacity="0.25"></line><line x1="0" y1="163.16666666666666" x2="248" y2="163.16666666666666" fill="rgb(0, 0, 0)" stroke="rgb(60, 60, 60)" stroke-width="1px" opacity="0.25"></line><line x1="0" y1="148.33333333333334" x2="248" y2="148.33333333333334" fill="rgb(0, 0, 0)" stroke="rgb(60, 60, 60)" stroke-width="1px" opacity="0.25"></line><line x1="0" y1="133.5" x2="248" y2="133.5" fill="rgb(0, 0, 0)" stroke="rgb(60, 60, 60)" stroke-width="1px" opacity="0.25"></line><line x1="0" y1="118.66666666666667" x2="248" y2="118.66666666666667" fill="rgb(0, 0, 0)" stroke="rgb(60, 60, 60)" stroke-width="1px" opacity="0.25"></line><line x1="0" y1="103.83333333333334" x2="248" y2="103.83333333333334" fill="rgb(0, 0, 0)" stroke="rgb(60, 60, 60)" stroke-width="1px" opacity="0.25"></line><line x1="0" y1="89.00000000000001" x2="248" y2="89.00000000000001" fill="rgb(0, 0, 0)" stroke="rgb(60, 60, 60)" stroke-width="1px" opacity="0.25"></line><line x1="0" y1="74.16666666666669" x2="248" y2="74.16666666666669" fill="rgb(0, 0, 0)" stroke="rgb(60, 60, 60)" stroke-width="1px" opacity="0.25"></line><line x1="0" y1="59.33333333333336" x2="248" y2="59.33333333333336" fill="rgb(0, 0, 0)" stroke="rgb(60, 60, 60)" stroke-width="1px" opacity="0.25"></line><line x1="0" y1="44.50000000000003" x2="248" y2="44.50000000000003" fill="rgb(0, 0, 0)" stroke="rgb(60, 60, 60)" stroke-width="1px" opacity="0.25"></line><line x1="0" y1="29.666666666666686" x2="248" y2="29.666666666666686" fill="rgb(0, 0, 0)" stroke="rgb(60, 60, 60)" stroke-width="1px" opacity="0.25"></line><line x1="0" y1="14.833333333333343" x2="248" y2="14.833333333333343" fill="rgb(0, 0, 0)" stroke="rgb(60, 60, 60)" stroke-width="1px" opacity="0.25"></line><line x1="0" y1="0" x2="248" y2="0" fill="rgb(0, 0, 0)" stroke="rgb(60, 60, 60)" stroke-width="1px" opacity="0.25"></line></g></g></g><g><g><line x1="0" y1="163.16666666666666" x2="248" y2="163.16666666666666" fill="rgb(0, 0, 0)" stroke="rgb(153, 153, 153)" stroke-width="1.5px"></line></g></g><g><g><line x1="24.8" y1="0" x2="24.8" y2="178" fill="rgb(0, 0, 0)" stroke="rgb(153, 153, 153)" stroke-width="1.5px"></line></g></g><g><g><g><g><g><path stroke="rgb(51, 187, 238)" stroke-width="2px" d="M27.28,-2.674481139702067L28.52,5.200551412561367L29.759999999999998,13.34207683576912L31,20.573993505125117L32.24,26.148066327823955L33.480000000000004,30.36368262752555L34.720000000000006,34.173907669275735L35.96,36.68745284509663L37.199999999999996,38.868342491141334L38.44,40.31866835709616L39.68,43.43726668908471L40.92,47.02894691643809L42.160000000000004,52.4477470500012L43.4,58.46609436929906L44.64,62.54144711633565L45.88,65.97585641152233L47.12,69.4429251187923L48.36,71.18851150946014L49.6,72.65013751144342L50.839999999999996,72.90662991495964L52.08,72.8289556537731L53.32,73.44810518752135L54.56,74.89074753072086L55.800000000000004,76.96698274140265L57.04,78.59948886780464L58.279999999999994,80.04338926937524L59.519999999999996,83.70887841456116L60.76,89.33586458590531L62,93.50174249570256L63.24,97.18715647798699L64.48,100.21039482054579L65.72,101.70892059386186L66.96000000000001,103.7453102357404L68.2,105.48279662060045L69.44000000000001,106.0017298797733L70.67999999999999,107.2213569968509L71.92,107.74260643973255L73.16,108.46120085328101L74.39999999999999,108.66058313073381L75.64,109.31505085592174L76.88,109.8173554594658L78.12,110.60237452135229L79.36,111.18195957395943L80.60000000000001,111.7010596143739L81.84,112.42805451242087L83.08,110.43118464597326L84.32000000000001,111.40376937578397L85.55999999999999,112.62677656526527L86.8,113.71655861287941L88.03999999999999,114.36720428317754L89.28,114.98105164438574L90.52,114.7865600311958L91.76,115.20462915445613L93,115.71115909702746L94.24,116.02041370483545L95.48,115.89185432282471L96.72,115.81336596620508L97.96000000000001,115.8984689017878L99.2,116.82003992999076L100.44000000000001,116.95861826859601L101.67999999999999,117.67134052429213L102.92,117.35182804612487L104.16,116.32387685029607L105.39999999999999,117.12738327134988L106.64,118.5904744343917L107.88,119.17000234188401L109.12,119.12275274234075L110.36,120.22864988825953L111.60000000000001,120.70700421362461L112.84,120.89064898349449L114.08,121.57885008011822L115.32000000000001,121.84236420564591L116.55999999999999,119.5390640261138L117.8,120.59191545818435L119.03999999999999,121.41745182061703L120.28,122.34892478496539L121.52,123.01762173718635L122.76,123.56602902897055L124,124.1352311473361L125.24,124.2822602769497L126.48,123.94234041258272L127.72,123.93073572248963L128.96,124.08594105361351L130.20000000000002,124.49506491254834L131.44,122.59448935090147L132.68,122.50355988044726L133.92000000000002,123.79843885878236L135.16,124.6941286395759L136.4,124.05631945555035L137.64000000000001,121.18573128397043L138.88000000000002,122.64758200574781L140.11999999999998,123.9029044139119L141.35999999999999,124.31103212601334L142.6,124.95837610343929L143.84,125.57942508089444L145.07999999999998,126.11737543996911L146.32,126.12068979336863L147.56,126.25985645886686L148.79999999999998,126.57823325973605L150.04,126.92335621187205L151.28,126.61751641831268L152.52,125.00170143446209L153.76,125.34218482971716L155,125.77397886197087L156.24,126.40034022498321L157.48,126.9342351768505L158.72,127.26608182474523L159.96,127.71780149033398L161.20000000000002,127.71958925460217L162.44,127.7723900326159L163.68,127.22000612505673L164.92000000000002,126.43905738803782L166.16,126.71692048001114L167.4,127.07820032331043L168.64000000000001,127.79745253101605L169.88000000000002,128.30821356083325L171.11999999999998,128.43671314063891L172.35999999999999,128.4526987859203L173.6,128.28572564851802L174.84,128.36509555299023L176.07999999999998,128.77280911238353L177.32,129.34799166380185L178.56,129.1581894528398L179.79999999999998,128.39464354544057L181.04,127.10892355856801L182.28,127.74854186624789L183.52,127.82316070467535L184.76,128.52425059280972L186,129.07265062095036L187.24,129.3755414443889L188.48,129.57628838962387L189.72,129.61210267988486L190.96,129.976742833342L192.20000000000002,130.0751005884921L193.44,130.4106542792071L194.68,130.55490670161342L195.92000000000002,130.34349562857685L197.16,130.39073085666183L198.4,130.56286780166914L199.64000000000001,130.5702619301972L200.88000000000002,130.34068629032555L202.11999999999998,130.55124522777112L203.35999999999999,130.71025470414784L204.6,130.411889397218L205.84,130.310296616821L207.07999999999998,129.5535200706334L208.32,130.31084099240368L209.56,129.73106636500717L210.79999999999998,130.36334366537943L212.04,130.83512166304084L213.28,131.14625269271545L214.52,131.41252473054894L215.76,131.57362741862875L217,131.66142203590357L218.24,131.48232974120629L219.48,131.37511042858353L220.72,131.6045744365763L221.96,131.96285439012317L223.20000000000002,131.93092662182175" style="fill: none;" fill="none"></path></g><g><path style="fill: none;" fill="none" stroke="none" stroke-width="1px"></path></g><g><path style="fill: none;" fill="none" stroke="none" stroke-width="1px"></path></g><g><path style="fill: none;" fill="none" stroke="none" stroke-width="1px"></path></g></g></g></g><g opacity="0.2"><g><g><g><path stroke="rgb(51, 187, 238)" stroke-width="2px" d="M24.8,-42.97597662607825L26.04,2.6104597647984917L27.28,8.663092692693084L28.52,14.46158969402316L29.759999999999998,23.97165242830914L31,30.578337748845456L32.24,34.11907964944842L33.480000000000004,36.51009166240695L34.720000000000006,39.793249507745145L35.96,40.41977449258172L37.199999999999996,42.1198964516322L38.44,42.48626454671228L39.68,48.104981422424345L40.92,52.40943078200024L42.160000000000004,60.5695776542028L43.4,67.48937074343365L44.64,68.65275168418886L45.88,71.12659835815431L47.12,74.64300000667573L48.36,73.80673154195152L49.6,74.84249635537468L50.839999999999996,73.29136008024217L52.08,72.71244579553606L53.32,74.37682215372723L54.56,77.0547007918358L55.800000000000004,80.08132670323056L57.04,81.04824388027193L58.279999999999994,82.20923765500389L59.519999999999996,89.20710875590643L60.76,97.77634073297185L62,99.75055797894797L63.24,102.71527671813966L64.48,104.74525197347006L65.72,103.95670914649965L66.96000000000001,106.79989461104077L68.2,108.08902615308763L69.44000000000001,106.78012976050378L70.67999999999999,109.05079766114554L71.92,108.5244806011518L73.16,109.53909247120222L74.39999999999999,108.95965654651326L75.64,110.29675244291624L76.88,110.57081236441931L78.12,111.77990311384202L79.36,112.05133715271951L80.60000000000001,112.47970967491469L81.84,113.51854685942334L83.08,107.43587984641394L84.32000000000001,112.86264647046727L85.55999999999999,114.46128734946251L86.8,115.3512316842874L88.03999999999999,115.34317278862L89.28,115.90182268619537L90.52,114.49482261141142L91.76,115.83173283934593L93,116.47095401088399L94.24,116.48429561654729L95.48,115.69901524980864L96.72,115.6956334312757L97.96000000000001,116.0261233051618L99.2,118.20239647229513L100.44000000000001,117.16648577650389L101.67999999999999,118.74042390783629L102.92,116.87255932887396L104.16,114.78195005655289L105.39999999999999,118.33264290293059L106.64,120.78511117895445L107.88,120.03929420312247L109.12,119.05187834302586L110.36,121.88749560713768L111.60000000000001,121.42453570167226L112.84,121.16611613829932L114.08,122.61115172505379L115.32000000000001,122.23763539393744L116.55999999999999,116.08411375681561L117.8,122.17119260629019L119.03999999999999,122.6557563642661L120.28,123.74613423148793L121.52,124.0206671655178L122.76,124.38863996664685L124,124.98903432488441L125.24,124.50280397137007L126.48,123.4324606160323L127.72,123.91332868734997L128.96,124.31874905029935L130.20000000000002,125.10875070095062L131.44,119.74362600843114L132.68,122.36716567476591L133.92000000000002,125.74075732628506L135.16,126.03766331076622L136.4,123.09960567951202L137.64000000000001,116.87984902660054L138.88000000000002,124.8403580884139L140.11999999999998,125.78588802615803L141.35999999999999,124.92322369416556L142.6,125.92939206957817L143.84,126.51099854707718L145.07999999999998,126.92430097858113L146.32,126.12566132346791L147.56,126.46860645711422L148.79999999999998,127.05579846103987L150.04,127.44104064007601L151.28,126.15875672797364L152.52,122.5779789586862L153.76,125.85290992259979L155,126.42166991035145L156.24,127.33988226950169L157.48,127.73507760465145L158.72,127.76385179658732L159.96,128.39538098871708L161.20000000000002,127.72227090100449L162.44,127.85159119963646L163.68,126.39143026371798L164.92000000000002,125.2676342825095L166.16,127.13371511797112L167.4,127.6201200882594L168.64000000000001,128.87633084257445L169.88000000000002,129.07435510555905L171.11999999999998,128.62946251034737L172.35999999999999,128.47667725384235L173.6,128.0352659424146L174.84,128.4841504096985L176.07999999999998,129.38437945147356L177.32,130.2107654909293L178.56,128.87348613639674L179.79999999999998,127.24932468434176L181.04,125.18034357825917L182.28,128.7079693277677L183.52,127.93508896231651L184.76,129.57588542501134L186,129.89525066316128L187.24,129.82987767954668L188.48,129.87740880747637L189.72,129.66582411527634L190.96,130.52370306352776L192.20000000000002,130.22263722121716L193.44,130.91398481527966L194.68,130.7712853352229L195.92000000000002,130.026379019022L197.16,130.4615836987893L198.4,130.8210732191801L199.64000000000001,130.58135312298936L200.88000000000002,129.9963228305181L202.11999999999998,130.86708363393944L203.35999999999999,130.94876891871294L204.6,129.96434143682322L205.84,130.1579074462255L207.07999999999998,128.418355251352L208.32,131.44682237505913L209.56,128.86140442391238L210.79999999999998,131.3117596159379L212.04,131.54278865953287L213.28,131.61294923722744L214.52,131.81193278729916L215.76,131.81528145074844L217,131.79311396181583L218.24,131.21369129916033L219.48,131.2142814596494L220.72,131.94877044856548L221.96,132.50027432044348L223.20000000000002,131.8830349693696" style="fill: none;" fill="none"></path></g><g><path style="fill: none;" fill="none" stroke="none" stroke-width="1px"></path></g><g><path style="fill: none;" fill="none" stroke="none" stroke-width="1px"></path></g><g><path style="fill: none;" fill="none" stroke="none" stroke-width="1px"></path></g></g></g></g></g></g><g transform="translate(82, 178)" clip-path="url(#clip_1)"><clipPath id="clip_1"><rect width="247" height="21"></rect></clipPath><g><g><line x1="0" y1="0" x2="0" y2="5" style="visibility: inherit;" fill="rgb(0, 0, 0)" stroke="rgb(204, 204, 204)" stroke-width="1px"></line><line x1="24.8" y1="0" x2="24.8" y2="5" style="visibility: inherit;" fill="rgb(0, 0, 0)" stroke="rgb(204, 204, 204)" stroke-width="1px"></line><line x1="49.6" y1="0" x2="49.6" y2="5" style="visibility: inherit;" fill="rgb(0, 0, 0)" stroke="rgb(204, 204, 204)" stroke-width="1px"></line><line x1="74.39999999999999" y1="0" x2="74.39999999999999" y2="5" style="visibility: inherit;" fill="rgb(0, 0, 0)" stroke="rgb(204, 204, 204)" stroke-width="1px"></line><line x1="99.2" y1="0" x2="99.2" y2="5" style="visibility: inherit;" fill="rgb(0, 0, 0)" stroke="rgb(204, 204, 204)" stroke-width="1px"></line><line x1="124" y1="0" x2="124" y2="5" style="visibility: inherit;" fill="rgb(0, 0, 0)" stroke="rgb(204, 204, 204)" stroke-width="1px"></line><line x1="148.79999999999998" y1="0" x2="148.79999999999998" y2="5" style="visibility: inherit;" fill="rgb(0, 0, 0)" stroke="rgb(204, 204, 204)" stroke-width="1px"></line><line x1="173.6" y1="0" x2="173.6" y2="5" style="visibility: inherit;" fill="rgb(0, 0, 0)" stroke="rgb(204, 204, 204)" stroke-width="1px"></line><line x1="198.4" y1="0" x2="198.4" y2="5" style="visibility: inherit;" fill="rgb(0, 0, 0)" stroke="rgb(204, 204, 204)" stroke-width="1px"></line><line x1="223.20000000000002" y1="0" x2="223.20000000000002" y2="5" style="visibility: inherit;" fill="rgb(0, 0, 0)" stroke="rgb(204, 204, 204)" stroke-width="1px"></line><line x1="248" y1="0" x2="248" y2="5" style="visibility: inherit;" fill="rgb(0, 0, 0)" stroke="rgb(204, 204, 204)" stroke-width="1px"></line></g><g transform="translate(0, 8)"><text x="0" y="0" dx="0em" dy="0.95em" style="text-anchor: middle; visibility: hidden; font-family: &quot;Helvetica Neue&quot;, sans-serif; font-size: 12px; font-weight: 200;" fill="rgb(50, 49, 63)" stroke="none" stroke-width="1px">-20.00</text><text x="24.8" y="0" dx="0em" dy="0.95em" style="text-anchor: middle; visibility: inherit; font-family: &quot;Helvetica Neue&quot;, sans-serif; font-size: 12px; font-weight: 200;" fill="rgb(50, 49, 63)" stroke="none" stroke-width="1px">0.000</text><text x="49.6" y="0" dx="0em" dy="0.95em" style="text-anchor: middle; visibility: hidden; font-family: &quot;Helvetica Neue&quot;, sans-serif; font-size: 12px; font-weight: 200;" fill="rgb(50, 49, 63)" stroke="none" stroke-width="1px">20.00</text><text x="74.39999999999999" y="0" dx="0em" dy="0.95em" style="text-anchor: middle; visibility: inherit; font-family: &quot;Helvetica Neue&quot;, sans-serif; font-size: 12px; font-weight: 200;" fill="rgb(50, 49, 63)" stroke="none" stroke-width="1px">40.00</text><text x="99.2" y="0" dx="0em" dy="0.95em" style="text-anchor: middle; visibility: hidden; font-family: &quot;Helvetica Neue&quot;, sans-serif; font-size: 12px; font-weight: 200;" fill="rgb(50, 49, 63)" stroke="none" stroke-width="1px">60.00</text><text x="124" y="0" dx="0em" dy="0.95em" style="text-anchor: middle; visibility: inherit; font-family: &quot;Helvetica Neue&quot;, sans-serif; font-size: 12px; font-weight: 200;" fill="rgb(50, 49, 63)" stroke="none" stroke-width="1px">80.00</text><text x="148.79999999999998" y="0" dx="0em" dy="0.95em" style="text-anchor: middle; visibility: hidden; font-family: &quot;Helvetica Neue&quot;, sans-serif; font-size: 12px; font-weight: 200;" fill="rgb(50, 49, 63)" stroke="none" stroke-width="1px">100.0</text><text x="173.6" y="0" dx="0em" dy="0.95em" style="text-anchor: middle; visibility: inherit; font-family: &quot;Helvetica Neue&quot;, sans-serif; font-size: 12px; font-weight: 200;" fill="rgb(50, 49, 63)" stroke="none" stroke-width="1px">120.0</text><text x="198.4" y="0" dx="0em" dy="0.95em" style="text-anchor: middle; visibility: hidden; font-family: &quot;Helvetica Neue&quot;, sans-serif; font-size: 12px; font-weight: 200;" fill="rgb(50, 49, 63)" stroke="none" stroke-width="1px">140.0</text><text x="223.20000000000002" y="0" dx="0em" dy="0.95em" style="text-anchor: middle; visibility: inherit; font-family: &quot;Helvetica Neue&quot;, sans-serif; font-size: 12px; font-weight: 200;" fill="rgb(50, 49, 63)" stroke="none" stroke-width="1px">160.0</text><text x="248" y="0" dx="0em" dy="0.95em" style="text-anchor: middle; visibility: hidden; font-family: &quot;Helvetica Neue&quot;, sans-serif; font-size: 12px; font-weight: 200;" fill="rgb(50, 49, 63)" stroke="none" stroke-width="1px">180.0</text></g><line x1="0" y1="0" x2="248" y2="0" fill="rgb(0, 0, 0)" stroke="rgb(204, 204, 204)" stroke-width="1px"></line></g></g></g></g></svg>