<svg viewBox="0 0 1637.46533203125 400.0000305175781" xmlns="http://www.w3.org/2000/svg"><g><g><g><g><g><line x1="82" y1="378" x2="77" y2="378" style="visibility: inherit;" fill="rgb(0, 0, 0)" stroke="rgb(204, 204, 204)" stroke-width="1px"></line><line x1="82" y1="335.93019469324827" x2="77" y2="335.93019469324827" style="visibility: inherit;" fill="rgb(0, 0, 0)" stroke="rgb(204, 204, 204)" stroke-width="1px"></line><line x1="82" y1="293.86038938649654" x2="77" y2="293.86038938649654" style="visibility: inherit;" fill="rgb(0, 0, 0)" stroke="rgb(204, 204, 204)" stroke-width="1px"></line><line x1="82" y1="255.13016747122995" x2="77" y2="255.13016747122995" style="visibility: inherit;" fill="rgb(0, 0, 0)" stroke="rgb(204, 204, 204)" stroke-width="1px"></line><line x1="82" y1="219.24809588556266" x2="77" y2="219.24809588556266" style="visibility: inherit;" fill="rgb(0, 0, 0)" stroke="rgb(204, 204, 204)" stroke-width="1px"></line><line x1="82" y1="185.82382126434834" x2="77" y2="185.82382126434834" style="visibility: inherit;" fill="rgb(0, 0, 0)" stroke="rgb(204, 204, 204)" stroke-width="1px"></line><line x1="82" y1="154.5421191235" x2="77" y2="154.5421191235" style="visibility: inherit;" fill="rgb(0, 0, 0)" stroke="rgb(204, 204, 204)" stroke-width="1px"></line><line x1="82" y1="125.14477124573753" x2="77" y2="125.14477124573753" style="visibility: inherit;" fill="rgb(0, 0, 0)" stroke="rgb(204, 204, 204)" stroke-width="1px"></line><line x1="82" y1="97.41759808475535" x2="77" y2="97.41759808475535" style="visibility: inherit;" fill="rgb(0, 0, 0)" stroke="rgb(204, 204, 204)" stroke-width="1px"></line><line x1="82" y1="71.18098087895993" x2="77" y2="71.18098087895993" style="visibility: inherit;" fill="rgb(0, 0, 0)" stroke="rgb(204, 204, 204)" stroke-width="1px"></line><line x1="82" y1="46.28280386159611" x2="77" y2="46.28280386159611" style="visibility: inherit;" fill="rgb(0, 0, 0)" stroke="rgb(204, 204, 204)" stroke-width="1px"></line><line x1="82" y1="22.59311091783627" x2="77" y2="22.59311091783627" style="visibility: inherit;" fill="rgb(0, 0, 0)" stroke="rgb(204, 204, 204)" stroke-width="1px"></line><line x1="82" y1="0" x2="77" y2="0" style="visibility: inherit;" fill="rgb(0, 0, 0)" stroke="rgb(204, 204, 204)" stroke-width="1px"></line></g><g transform="translate(72, 0)"><text x="0" y="378" dx="0em" dy="0.3em" style="text-anchor: end; visibility: hidden; font-family: &quot;Helvetica Neue&quot;, sans-serif; font-size: 12px; font-weight: 200;" fill="rgb(50, 49, 63)" stroke="none" stroke-width="1px">-0.100</text><text x="0" y="335.93019469324827" dx="0em" dy="0.3em" style="text-anchor: end; visibility: inherit; font-family: &quot;Helvetica Neue&quot;, sans-serif; font-size: 12px; font-weight: 200;" fill="rgb(50, 49, 63)" stroke="none" stroke-width="1px">0.00</text><text x="0" y="293.86038938649654" dx="0em" dy="0.3em" style="text-anchor: end; visibility: inherit; font-family: &quot;Helvetica Neue&quot;, sans-serif; font-size: 12px; font-weight: 200;" fill="rgb(50, 49, 63)" stroke="none" stroke-width="1px">0.100</text><text x="0" y="255.13016747122995" dx="0em" dy="0.3em" style="text-anchor: end; visibility: inherit; font-family: &quot;Helvetica Neue&quot;, sans-serif; font-size: 12px; font-weight: 200;" fill="rgb(50, 49, 63)" stroke="none" stroke-width="1px">0.200</text><text x="0" y="219.24809588556266" dx="0em" dy="0.3em" style="text-anchor: end; visibility: inherit; font-family: &quot;Helvetica Neue&quot;, sans-serif; font-size: 12px; font-weight: 200;" fill="rgb(50, 49, 63)" stroke="none" stroke-width="1px">0.300</text><text x="0" y="185.82382126434834" dx="0em" dy="0.3em" style="text-anchor: end; visibility: inherit; font-family: &quot;Helvetica Neue&quot;, sans-serif; font-size: 12px; font-weight: 200;" fill="rgb(50, 49, 63)" stroke="none" stroke-width="1px">0.400</text><text x="0" y="154.5421191235" dx="0em" dy="0.3em" style="text-anchor: end; visibility: inherit; font-family: &quot;Helvetica Neue&quot;, sans-serif; font-size: 12px; font-weight: 200;" fill="rgb(50, 49, 63)" stroke="none" stroke-width="1px">0.500</text><text x="0" y="125.14477124573753" dx="0em" dy="0.3em" style="text-anchor: end; visibility: inherit; font-family: &quot;Helvetica Neue&quot;, sans-serif; font-size: 12px; font-weight: 200;" fill="rgb(50, 49, 63)" stroke="none" stroke-width="1px">0.600</text><text x="0" y="97.41759808475535" dx="0em" dy="0.3em" style="text-anchor: end; visibility: inherit; font-family: &quot;Helvetica Neue&quot;, sans-serif; font-size: 12px; font-weight: 200;" fill="rgb(50, 49, 63)" stroke="none" stroke-width="1px">0.700</text><text x="0" y="71.18098087895993" dx="0em" dy="0.3em" style="text-anchor: end; visibility: inherit; font-family: &quot;Helvetica Neue&quot;, sans-serif; font-size: 12px; font-weight: 200;" fill="rgb(50, 49, 63)" stroke="none" stroke-width="1px">0.800</text><text x="0" y="46.28280386159611" dx="0em" dy="0.3em" style="text-anchor: end; visibility: inherit; font-family: &quot;Helvetica Neue&quot;, sans-serif; font-size: 12px; font-weight: 200;" fill="rgb(50, 49, 63)" stroke="none" stroke-width="1px">0.900</text><text x="0" y="22.59311091783627" dx="0em" dy="0.3em" style="text-anchor: end; visibility: inherit; font-family: &quot;Helvetica Neue&quot;, sans-serif; font-size: 12px; font-weight: 200;" fill="rgb(50, 49, 63)" stroke="none" stroke-width="1px">1.00</text><text x="0" y="0" dx="0em" dy="0.3em" style="text-anchor: end; visibility: hidden; font-family: &quot;Helvetica Neue&quot;, sans-serif; font-size: 12px; font-weight: 200;" fill="rgb(50, 49, 63)" stroke="none" stroke-width="1px">1.10</text></g><line x1="82" y1="0" x2="82" y2="378" fill="rgb(0, 0, 0)" stroke="rgb(204, 204, 204)" stroke-width="1px"></line></g></g><g transform="translate(82, 0)" clip-path="url(#clip_0)"><clipPath id="clip_0"><rect width="1555" height="377"></rect></clipPath><g><g><g><line x1="0" y1="0" x2="0" y2="378" fill="rgb(0, 0, 0)" stroke="rgb(60, 60, 60)" stroke-width="1px" opacity="0.25"></line><line x1="155.54700000000003" y1="0" x2="155.54700000000003" y2="378" fill="rgb(0, 0, 0)" stroke="rgb(60, 60, 60)" stroke-width="1px" opacity="0.25"></line><line x1="311.09400000000005" y1="0" x2="311.09400000000005" y2="378" fill="rgb(0, 0, 0)" stroke="rgb(60, 60, 60)" stroke-width="1px" opacity="0.25"></line><line x1="466.64099999999996" y1="0" x2="466.64099999999996" y2="378" fill="rgb(0, 0, 0)" stroke="rgb(60, 60, 60)" stroke-width="1px" opacity="0.25"></line><line x1="622.1880000000001" y1="0" x2="622.1880000000001" y2="378" fill="rgb(0, 0, 0)" stroke="rgb(60, 60, 60)" stroke-width="1px" opacity="0.25"></line><line x1="777.735" y1="0" x2="777.735" y2="378" fill="rgb(0, 0, 0)" stroke="rgb(60, 60, 60)" stroke-width="1px" opacity="0.25"></line><line x1="933.2819999999999" y1="0" x2="933.2819999999999" y2="378" fill="rgb(0, 0, 0)" stroke="rgb(60, 60, 60)" stroke-width="1px" opacity="0.25"></line><line x1="1088.829" y1="0" x2="1088.829" y2="378" fill="rgb(0, 0, 0)" stroke="rgb(60, 60, 60)" stroke-width="1px" opacity="0.25"></line><line x1="1244.3760000000002" y1="0" x2="1244.3760000000002" y2="378" fill="rgb(0, 0, 0)" stroke="rgb(60, 60, 60)" stroke-width="1px" opacity="0.25"></line><line x1="1399.923" y1="0" x2="1399.923" y2="378" fill="rgb(0, 0, 0)" stroke="rgb(60, 60, 60)" stroke-width="1px" opacity="0.25"></line><line x1="1555.47" y1="0" x2="1555.47" y2="378" fill="rgb(0, 0, 0)" stroke="rgb(60, 60, 60)" stroke-width="1px" opacity="0.25"></line></g><g><line x1="0" y1="378" x2="1555.47" y2="378" fill="rgb(0, 0, 0)" stroke="rgb(60, 60, 60)" stroke-width="1px" opacity="0.25"></line><line x1="0" y1="335.93019469324827" x2="1555.47" y2="335.93019469324827" fill="rgb(0, 0, 0)" stroke="rgb(60, 60, 60)" stroke-width="1px" opacity="0.25"></line><line x1="0" y1="293.86038938649654" x2="1555.47" y2="293.86038938649654" fill="rgb(0, 0, 0)" stroke="rgb(60, 60, 60)" stroke-width="1px" opacity="0.25"></line><line x1="0" y1="255.13016747122995" x2="1555.47" y2="255.13016747122995" fill="rgb(0, 0, 0)" stroke="rgb(60, 60, 60)" stroke-width="1px" opacity="0.25"></line><line x1="0" y1="219.24809588556266" x2="1555.47" y2="219.24809588556266" fill="rgb(0, 0, 0)" stroke="rgb(60, 60, 60)" stroke-width="1px" opacity="0.25"></line><line x1="0" y1="185.82382126434834" x2="1555.47" y2="185.82382126434834" fill="rgb(0, 0, 0)" stroke="rgb(60, 60, 60)" stroke-width="1px" opacity="0.25"></line><line x1="0" y1="154.5421191235" x2="1555.47" y2="154.5421191235" fill="rgb(0, 0, 0)" stroke="rgb(60, 60, 60)" stroke-width="1px" opacity="0.25"></line><line x1="0" y1="125.14477124573753" x2="1555.47" y2="125.14477124573753" fill="rgb(0, 0, 0)" stroke="rgb(60, 60, 60)" stroke-width="1px" opacity="0.25"></line><line x1="0" y1="97.41759808475535" x2="1555.47" y2="97.41759808475535" fill="rgb(0, 0, 0)" stroke="rgb(60, 60, 60)" stroke-width="1px" opacity="0.25"></line><line x1="0" y1="71.18098087895993" x2="1555.47" y2="71.18098087895993" fill="rgb(0, 0, 0)" stroke="rgb(60, 60, 60)" stroke-width="1px" opacity="0.25"></line><line x1="0" y1="46.28280386159611" x2="1555.47" y2="46.28280386159611" fill="rgb(0, 0, 0)" stroke="rgb(60, 60, 60)" stroke-width="1px" opacity="0.25"></line><line x1="0" y1="22.59311091783627" x2="1555.47" y2="22.59311091783627" fill="rgb(0, 0, 0)" stroke="rgb(60, 60, 60)" stroke-width="1px" opacity="0.25"></line><line x1="0" y1="0" x2="1555.47" y2="0" fill="rgb(0, 0, 0)" stroke="rgb(60, 60, 60)" stroke-width="1px" opacity="0.25"></line></g></g></g><g><g><line x1="0" y1="335.93019469324827" x2="1555.47" y2="335.93019469324827" fill="rgb(0, 0, 0)" stroke="rgb(153, 153, 153)" stroke-width="1.5px"></line></g></g><g><g><line x1="155.54700000000003" y1="0" x2="155.54700000000003" y2="378" fill="rgb(0, 0, 0)" stroke="rgb(153, 153, 153)" stroke-width="1.5px"></line></g></g><g><g><g><g><g><path stroke="rgb(51, 187, 238)" stroke-width="2px" d="M171.1017,-3.964615981558836L178.87905,7.802644091558193L186.6564,20.273868833959455L194.43375,31.625426879419706L202.21110000000002,40.55850889304952L209.98845000000003,47.4247651583911L217.7658,53.71493397312156L225.54315,57.909274599762966L233.32049999999998,61.577944067281976L241.09785,64.03302029356627L248.8752,69.35430104062465L256.65255,75.55554773713328L264.42990000000003,85.0630847516685L272.20725,95.84422937810615L279.9846,103.2823228533594L287.76195,109.63981868151194L295.5393,116.14286566564249L303.31665000000004,119.45007674409845L311.09400000000005,122.23663201863477L318.87135,122.72727345619765L326.6487,122.5786391725872L334.42605,123.76467760026281L342.2034,126.53942351591311L349.98075,130.56069523814494L357.7581,133.7459760281932L365.53544999999997,136.58068237577433L373.3128,143.85168895713548L381.09015,155.22868299191092L388.8675,163.82568752733457L396.64485,171.55947326454432L404.42220000000003,177.9964657639644L412.19955000000004,181.21882390656398L419.97690000000006,185.63215227421662L427.75425000000007,189.42949135095947L435.5316,190.56939101297573L443.30895,193.25897523883253L451.0863,194.4129965251713L458.86365,196.00841622686644L466.64099999999996,196.4520093725969L474.41835,197.91093323877885L482.1957,199.03362350574383L489.97305,200.79338990055086L497.7504,202.09672055341164L505.52775,203.26699794951796L513.3051,204.91069096632424L521.08245,200.40909471253232L528.8598000000001,202.59643314879864L536.63715,205.36095475722743L544.4145,207.8375902018269L552.1918499999999,209.32225811100528L559.9692,210.72710983117116L567.74655,210.28155842555103L575.5239,211.23979562954526L583.30125,212.40331552153103L591.0786,213.1150517518671L598.85595,212.8190518085464L606.6333000000001,212.6384254686274L614.41065,212.83427708444202L622.1880000000001,214.96018202465785L629.9653500000001,215.2806605251309L637.7427,216.93224530693533L645.52005,216.19115089214856L653.2974,213.81446934490899L661.07475,215.6712335295108L668.8521,219.07042865991093L676.62945,220.42341571027544L684.4068,220.31296455742722L692.18415,222.9046963624478L699.9615,224.0300236268413L707.7388500000001,224.46273750168984L715.5162,226.08773512475486L723.2935500000001,226.7113861950212L731.0708999999999,221.28699911748328L738.84825,223.7590405656579L746.6256,225.70615170610387L754.40295,227.91249059741313L762.1803,229.50257504878059L769.9576500000001,230.81050114847304L777.735,232.17173820820264L785.51235,232.52397356784977L793.2897,231.71001801746638L801.06705,231.68225393456368L808.8444000000001,232.05371156979976L816.62175,233.03423681712235L824.3991000000001,228.49581331597244L832.17645,228.27973497786164L839.9538000000001,231.36584682421358L847.7311500000001,233.51203538484026L855.5085000000001,231.98279547125233L863.2858500000001,225.1588308827231L871.0632,228.6220231711615L878.8405499999999,231.61567429397817L886.6179,232.59293157466433L894.3952499999999,234.14701313223475L902.1726,235.64263260112588L909.94995,236.94184657774085L917.7273,236.94986186143876L925.50465,237.2865351179822L933.2819999999999,238.05762947901658L941.05935,238.89487987555918L948.8367,238.15285599803613L956.61405,234.25120129718093L964.3914,235.07076607324592L972.16875,236.11210405251984L979.9461,237.6266303754281L987.7234500000001,238.92129504019547L995.5008,239.7277378905787L1003.2781500000001,240.82763759353264L1011.0555,240.8319955774286L1018.83285,240.96072413046073L1026.6102,239.61568655856476L1034.3875500000001,237.72040189637443L1042.1649,238.3939049322496L1049.94225,239.2709908245431L1057.7196000000001,241.0218385053334L1065.4969500000002,242.26898819269388L1073.2743,242.58325403958167L1081.0516499999999,242.62236359187114L1088.829,242.21401127582425L1096.60635,242.40807705720647L1104.3836999999999,243.40618724111732L1112.16105,244.81775203099417L1119.9384,244.35150400499535L1127.71575,242.48034397928433L1135.4931,239.3456509556544L1143.27045,240.9025779816345L1151.0478,241.08453529582283L1158.8251500000001,242.7974565000163L1166.6025,244.14152384055802L1174.37985,244.88546493081415L1182.1572,245.3791521845714L1189.93455,245.4672810413252L1197.7119,246.36546427288744L1205.48925,246.60802279360615L1213.2666000000002,247.43643460496236L1221.04395,247.79299615812855L1228.8213,247.27052139612366L1236.5986500000001,247.38720857031092L1244.3760000000002,247.8126819028908L1252.15335,247.83096638453497L1259.9307000000001,247.26358224815067L1267.70805,247.7839425452651L1275.4854,248.17727511775843L1283.2627499999999,247.43948645097228L1291.0401,247.18852516605557L1298.81745,245.32313405080285L1306.5948,247.18986957530544L1314.37215,245.7601313290496L1322.1495,247.3195494401633L1329.92685,248.48637361641062L1337.7042,249.2574068670218L1345.48155,249.9182407004587L1353.2589,250.3185000683449L1361.03625,250.53676388474605L1368.8136,250.09163084603247L1376.59095,249.8253318667064L1384.3683,250.39542547404346L1392.1456500000002,251.28689025800773L1399.923,251.20738213969076" style="fill: none;" fill="none"></path></g><g><path style="fill: none;" fill="none" stroke="none" stroke-width="1px"></path></g><g><path style="fill: none;" fill="none" stroke="none" stroke-width="1px"></path></g><g><path style="fill: none;" fill="none" stroke="none" stroke-width="1px"></path></g></g></g></g><g opacity="0.2"><g><g><g><path stroke="rgb(51, 187, 238)" stroke-width="2px" d="M155.54700000000003,-60.1091169607767L163.32435,3.9010127811736766L171.1017,13.067695039023135L178.87905,22.013933435443334L186.6564,37.051081355337544L194.43375,47.77698566671137L202.21110000000002,53.62384313935928L209.98845000000003,57.61212822604256L217.7658,63.14217717839489L225.54315,64.204631538846L233.32049999999998,67.09938537045247L241.09785,67.72544531972676L248.8752,77.42882412812219L256.65255,84.99520287337702L264.42990000000003,99.66922925983977L272.20725,112.46801112410458L279.9846,114.65312764384714L287.76195,119.33239121822845L295.5393,126.0617884277666L303.31665000000004,124.45297989263585L311.09400000000005,126.4463629094877L318.87135,123.46414527656617L326.6487,122.35577549778293L334.42605,125.54914154125137L342.2034,130.7313198512471L349.98075,136.65538460230988L357.7581,138.56320042752444L365.53544999999997,140.86384176436513L373.3128,154.96537021567028L381.09015,172.80730654585156L388.8675,177.01190444058196L396.64485,183.3948444407104L404.42220000000003,187.81395149812258L412.19955000000004,186.09259699108412L419.97690000000006,192.32786826894093L427.75425000000007,195.18146493795766L435.5316,192.28424675006084L443.30895,197.3213413942473L451.0863,196.14915971694052L458.86365,198.41136490319363L466.64099999999996,197.11815578704523L474.41835,200.10752681433704L482.1957,200.722514917153L489.97305,203.44499117690773L497.7504,204.058264162866L505.52775,205.02769112873628L513.3051,207.38665419507888L521.08245,193.7335882572294L528.8598000000001,205.89592759493976L536.63715,209.53731455775986L544.4145,211.57626254249178L552.1918499999999,211.55776057659745L559.9692,212.84199692469352L567.74655,209.61399285791583L575.5239,212.68068741825635L583.30125,214.15381158136765L591.0786,214.1846055335761L598.85595,212.375388140218L606.6333000000001,212.36761120756339L614.41065,213.12820191321174L622.1880000000001,218.16649942024233L629.9653500000001,215.7617731000663L637.7427,219.4201467451167L645.52005,215.0816144766221L653.2974,210.2710025901834L661.07475,218.46968889574407L668.8521,224.2140166682253L676.62945,222.45995330639388L684.4068,220.14733467012664L692.18415,226.81827730233505L699.9615,225.72289340906332L707.7388500000001,225.1125283279444L715.5162,228.5354189697517L723.2935500000001,227.6483592066593L731.0708999999999,213.26178366397127L738.84825,227.49073369936144L746.6256,228.64145784665516L754.40295,231.24080927777896L762.1803,231.8974551495256L769.9576500000001,232.77898426595115L777.735,234.22073730458771L785.51235,233.05280359768426L793.2897,230.49162369262217L801.06705,231.64061077067072L808.8444000000001,232.6114285223148L816.62175,234.508727299732L824.3991000000001,221.76632141936742L832.17645,227.95579669293363L839.9538000000001,236.0319062650082L847.7311500000001,236.74911397069397L855.5085000000001,229.6978803363111L863.2858500000001,215.09847170041002L871.0632,233.86331775194503L878.8405499999999,236.14085634176834L886.6179,234.06249543484142L894.3952499999999,236.48745129515936L902.1726,237.89468853644937L909.94995,238.89717380257034L917.7273,236.96188503374458L925.50465,237.7919807578815L933.2819999999999,239.21655955006938L941.05935,240.15345402283225L948.8367,237.0419306669711L956.61405,228.45657208499594L964.3914,236.30269886315838L972.16875,237.67828784749267L979.9461,239.90726653892938L987.7234500000001,240.86975273192587L995.5008,240.93990556870887L1003.2781500000001,242.4821477160065L1011.0555,240.83853262621852L1018.83285,241.1538806290271L1026.6102,237.60505333175237L1034.3875500000001,234.8912005677083L1042.1649,239.40590492452046L1049.94225,240.58958143603718L1057.7196000000001,243.65994058332348L1065.4969500000002,244.14570711639573L1073.2743,243.05503246829147L1081.0516499999999,242.6810337957092L1088.829,241.6021225537434L1096.60635,242.69932045770932L1104.3836999999999,244.90718931113528L1112.16105,246.94278176832316L1119.9384,243.65296585267444L1127.71575,239.68698328374808L1135.4931,234.68103250820639L1143.27045,243.2473185653418L1151.0478,241.3575984944849L1158.8251500000001,245.37816069293558L1166.6025,246.16458895993577L1174.37985,246.00350659887408L1182.1572,246.12062044492487L1189.93455,245.59950416423348L1197.7119,247.71584527084548L1205.48925,246.97208669862786L1213.2666000000002,248.68169413572784L1221.04395,248.3283272728746L1228.8213,246.48785622994535L1236.5986500000001,247.56229164467692L1244.3760000000002,248.45158800776102L1252.15335,247.85839439114213L1259.9307000000001,246.41374059060672L1267.70805,248.56552447282266L1275.4854,248.76786883316973L1283.2627499999999,246.33488993703156L1291.0401,246.81232497480096L1298.81745,242.53834455756098L1306.5948,250.00342565087152L1314.37215,243.62334468035408L1322.1495,249.66805665982145L1329.92685,250.24185581936916L1337.7042,250.41624490933214L1345.48155,250.91117178186465L1353.2589,250.91950512448176L1361.03625,250.86434269239442L1368.8136,249.42469140014106L1376.59095,249.42615557314602L1384.3683,251.25181612926832L1392.1456500000002,252.62714723377871L1399.923,251.08814423693934" style="fill: none;" fill="none"></path></g><g><path style="fill: none;" fill="none" stroke="none" stroke-width="1px"></path></g><g><path style="fill: none;" fill="none" stroke="none" stroke-width="1px"></path></g><g><path style="fill: none;" fill="none" stroke="none" stroke-width="1px"></path></g></g></g></g></g></g><g transform="translate(82, 378)" clip-path="url(#clip_1)"><clipPath id="clip_1"><rect width="1555" height="21"></rect></clipPath><g><g><line x1="0" y1="0" x2="0" y2="5" style="visibility: inherit;" fill="rgb(0, 0, 0)" stroke="rgb(204, 204, 204)" stroke-width="1px"></line><line x1="155.54700000000003" y1="0" x2="155.54700000000003" y2="5" style="visibility: inherit;" fill="rgb(0, 0, 0)" stroke="rgb(204, 204, 204)" stroke-width="1px"></line><line x1="311.09400000000005" y1="0" x2="311.09400000000005" y2="5" style="visibility: inherit;" fill="rgb(0, 0, 0)" stroke="rgb(204, 204, 204)" stroke-width="1px"></line><line x1="466.64099999999996" y1="0" x2="466.64099999999996" y2="5" style="visibility: inherit;" fill="rgb(0, 0, 0)" stroke="rgb(204, 204, 204)" stroke-width="1px"></line><line x1="622.1880000000001" y1="0" x2="622.1880000000001" y2="5" style="visibility: inherit;" fill="rgb(0, 0, 0)" stroke="rgb(204, 204, 204)" stroke-width="1px"></line><line x1="777.735" y1="0" x2="777.735" y2="5" style="visibility: inherit;" fill="rgb(0, 0, 0)" stroke="rgb(204, 204, 204)" stroke-width="1px"></line><line x1="933.2819999999999" y1="0" x2="933.2819999999999" y2="5" style="visibility: inherit;" fill="rgb(0, 0, 0)" stroke="rgb(204, 204, 204)" stroke-width="1px"></line><line x1="1088.829" y1="0" x2="1088.829" y2="5" style="visibility: inherit;" fill="rgb(0, 0, 0)" stroke="rgb(204, 204, 204)" stroke-width="1px"></line><line x1="1244.3760000000002" y1="0" x2="1244.3760000000002" y2="5" style="visibility: inherit;" fill="rgb(0, 0, 0)" stroke="rgb(204, 204, 204)" stroke-width="1px"></line><line x1="1399.923" y1="0" x2="1399.923" y2="5" style="visibility: inherit;" fill="rgb(0, 0, 0)" stroke="rgb(204, 204, 204)" stroke-width="1px"></line><line x1="1555.47" y1="0" x2="1555.47" y2="5" style="visibility: inherit;" fill="rgb(0, 0, 0)" stroke="rgb(204, 204, 204)" stroke-width="1px"></line></g><g transform="translate(0, 8)"><text x="0" y="0" dx="0em" dy="0.95em" style="text-anchor: middle; visibility: hidden; font-family: &quot;Helvetica Neue&quot;, sans-serif; font-size: 12px; font-weight: 200;" fill="rgb(50, 49, 63)" stroke="none" stroke-width="1px">-20.00</text><text x="155.54700000000003" y="0" dx="0em" dy="0.95em" style="text-anchor: middle; visibility: inherit; font-family: &quot;Helvetica Neue&quot;, sans-serif; font-size: 12px; font-weight: 200;" fill="rgb(50, 49, 63)" stroke="none" stroke-width="1px">0.000</text><text x="311.09400000000005" y="0" dx="0em" dy="0.95em" style="text-anchor: middle; visibility: inherit; font-family: &quot;Helvetica Neue&quot;, sans-serif; font-size: 12px; font-weight: 200;" fill="rgb(50, 49, 63)" stroke="none" stroke-width="1px">20.00</text><text x="466.64099999999996" y="0" dx="0em" dy="0.95em" style="text-anchor: middle; visibility: inherit; font-family: &quot;Helvetica Neue&quot;, sans-serif; font-size: 12px; font-weight: 200;" fill="rgb(50, 49, 63)" stroke="none" stroke-width="1px">40.00</text><text x="622.1880000000001" y="0" dx="0em" dy="0.95em" style="text-anchor: middle; visibility: inherit; font-family: &quot;Helvetica Neue&quot;, sans-serif; font-size: 12px; font-weight: 200;" fill="rgb(50, 49, 63)" stroke="none" stroke-width="1px">60.00</text><text x="777.735" y="0" dx="0em" dy="0.95em" style="text-anchor: middle; visibility: inherit; font-family: &quot;Helvetica Neue&quot;, sans-serif; font-size: 12px; font-weight: 200;" fill="rgb(50, 49, 63)" stroke="none" stroke-width="1px">80.00</text><text x="933.2819999999999" y="0" dx="0em" dy="0.95em" style="text-anchor: middle; visibility: inherit; font-family: &quot;Helvetica Neue&quot;, sans-serif; font-size: 12px; font-weight: 200;" fill="rgb(50, 49, 63)" stroke="none" stroke-width="1px">100.0</text><text x="1088.829" y="0" dx="0em" dy="0.95em" style="text-anchor: middle; visibility: inherit; font-family: &quot;Helvetica Neue&quot;, sans-serif; font-size: 12px; font-weight: 200;" fill="rgb(50, 49, 63)" stroke="none" stroke-width="1px">120.0</text><text x="1244.3760000000002" y="0" dx="0em" dy="0.95em" style="text-anchor: middle; visibility: inherit; font-family: &quot;Helvetica Neue&quot;, sans-serif; font-size: 12px; font-weight: 200;" fill="rgb(50, 49, 63)" stroke="none" stroke-width="1px">140.0</text><text x="1399.923" y="0" dx="0em" dy="0.95em" style="text-anchor: middle; visibility: inherit; font-family: &quot;Helvetica Neue&quot;, sans-serif; font-size: 12px; font-weight: 200;" fill="rgb(50, 49, 63)" stroke="none" stroke-width="1px">160.0</text><text x="1555.47" y="0" dx="0em" dy="0.95em" style="text-anchor: middle; visibility: hidden; font-family: &quot;Helvetica Neue&quot;, sans-serif; font-size: 12px; font-weight: 200;" fill="rgb(50, 49, 63)" stroke="none" stroke-width="1px">180.0</text></g><line x1="0" y1="0" x2="1555.47" y2="0" fill="rgb(0, 0, 0)" stroke="rgb(204, 204, 204)" stroke-width="1px"></line></g></g></g></g></svg>